<svg width="64" height="64" viewBox="0 0 64 64" fill="none" xmlns="http://www.w3.org/2000/svg">
<g clip-path="url(#clip0_5_167)">
<g opacity="0.6">
<path d="M62.125 9.42275H56.303C55.4635 4.09088 50.8374 0 45.2735 0H18.7266C13.1626 0 8.5365 4.09088 7.69713 9.42275H1.875C0.8395 9.42275 0 10.2622 0 11.2978V22.6513C0 23.6868 0.8395 24.5263 1.875 24.5263C2.9105 24.5263 3.75 23.6868 3.75 22.6513V13.1728H7.56063V52.7475C6.59963 52.8283 5.8445 53.6326 5.8445 54.6145C5.8445 55.65 6.684 56.4895 7.7195 56.4895H11.5317V62.125C11.5317 63.1605 12.3713 64 13.4067 64H22.3691C23.4046 64 24.2441 63.1605 24.2441 62.125V56.4895H39.7559V62.125C39.7559 63.1605 40.5954 64 41.6309 64H50.5933C51.6288 64 52.4683 63.1605 52.4683 62.125V56.4895H56.2805C57.316 56.4895 58.1555 55.65 58.1555 54.6145C58.1555 53.6326 57.4004 52.8283 56.4394 52.7475V13.1728H60.25V22.6513C60.25 23.6868 61.0895 24.5263 62.125 24.5263C63.1605 24.5263 64 23.6868 64 22.6513V11.2978C64 10.2622 63.1605 9.42275 62.125 9.42275ZM11.3106 52.7395V48.6203H20.1634C21.1989 48.6203 22.0384 47.7808 22.0384 46.7453C22.0384 41.879 18.1095 37.92 13.2805 37.92H11.3106V33.8019H52.6893V37.8081H50.7194C45.8903 37.8081 41.9615 41.7671 41.9615 46.6334C41.9615 47.6602 42.7875 48.4961 43.8144 48.5083L52.6893 48.6131V52.7396L11.3106 52.7395ZM11.3106 41.67H13.2805C15.3888 41.67 17.1969 42.997 17.9342 44.8703H11.3106V41.67ZM52.6894 44.8628L46.0556 44.7845C46.7865 42.8974 48.6015 41.5581 50.7196 41.5581H52.6895L52.6894 44.8628ZM18.7266 3.75H45.2735C49.3626 3.75 52.6894 7.07675 52.6894 11.1659V30.0519H11.3106V11.1659C11.3106 7.07675 14.6375 3.75 18.7266 3.75ZM20.4941 60.25H15.2817V56.4895H20.4941V60.25ZM48.7183 60.25H43.5059V56.4895H48.7183V60.25Z" fill="black"/>
</g>
</g>
<defs>
<clipPath id="clip0_5_167">
<rect width="64" height="64" fill="white"/>
</clipPath>
</defs>
</svg>
