<svg width="34" height="20" viewBox="0 0 34 20" fill="none" xmlns="http://www.w3.org/2000/svg">
<path opacity="0.3" fill-rule="evenodd" clip-rule="evenodd" d="M30.1061 6.23791C30.2761 4.38791 27.8861 3.74792 26.2261 4.49792C25.7061 2.58792 24.7661 0.557939 22.9661 0.137939C22.036 -0.0676899 21.0698 -0.0431031 20.1513 0.209594C19.2329 0.462292 18.3901 0.935467 17.6961 1.58795C17.4161 1.85795 17.3661 2.2979 16.9361 2.3479C16.5261 1.6979 16.2061 1.02793 15.5461 0.757934C13.7161 0.0279343 11.4361 1.90794 10.2761 2.69794C9.77521 2.27287 9.17888 1.97535 8.53805 1.83081C7.89722 1.68627 7.23094 1.69901 6.59609 1.86792C5.53609 2.24792 5.01608 3.55793 4.51608 4.43793C4.05608 4.64793 3.64608 4.32791 3.20608 4.35791C1.64608 4.47791 -0.423926 6.93791 0.0760736 8.72791C0.616074 9.51791 1.55611 9.8879 2.23611 10.5379C1.91522 11.0551 1.79403 11.6716 1.89529 12.2718C1.99654 12.872 2.31328 13.4146 2.7861 13.7979C3.9761 14.7979 6.12608 14.4379 7.70608 14.7979C7.01608 18.3179 11.7061 18.378 13.7061 17.088C13.838 17.7997 14.1874 18.453 14.7061 18.9579C16.3061 20.0679 18.2961 19.0679 19.5561 18.2679C20.1261 17.8979 21.1161 16.8479 21.7061 16.9479C21.9561 16.9479 22.1461 17.3679 22.4061 17.5679C23.1161 18.1379 23.4761 18.0479 24.5561 18.2679C25.4261 18.4379 25.4161 18.0379 26.0761 17.8479C26.3061 17.7879 26.5561 17.8479 26.7761 17.8479C27.2361 17.7379 27.4961 17.1479 28.0861 17.2179C28.6761 16.2179 29.7061 15.6479 29.7561 14.0979C30.299 14.164 30.8498 14.1086 31.3687 13.9356C31.8875 13.7627 32.3614 13.4765 32.7561 13.0979C33.197 12.5383 33.5355 11.9053 33.7561 11.2279C34.5561 8.68791 31.7861 7.07791 30.1061 6.23791ZM3.1061 12.1279C3.04607 12.1407 2.98404 12.1411 2.92385 12.1291C2.86366 12.1171 2.80661 12.0928 2.75613 12.0579C2.81613 11.9579 2.9761 11.9579 3.1061 11.9179V12.1279ZM7.81612 15.3879V15.1779C7.96613 15.1779 7.99609 15.2279 8.09609 15.2479C8.19609 15.2679 8.00609 15.4079 7.84609 15.3879H7.81612ZM8.81612 16.9879C8.77401 16.9988 8.72994 16.9998 8.6874 16.9907C8.64487 16.9816 8.60504 16.9627 8.57107 16.9355C8.5371 16.9083 8.50988 16.8736 8.49166 16.8341C8.47345 16.7946 8.4647 16.7514 8.46609 16.7079C8.56901 16.6395 8.69479 16.6143 8.81612 16.6379V16.9879ZM11.1761 17.5379C11.0561 17.5379 10.8261 17.6079 10.8961 17.3979C11.0261 17.3979 11.0461 17.3179 11.1761 17.3279V17.5379ZM12.6361 17.1279C12.7061 16.9079 13.0261 16.6879 13.2561 16.8479C13.1858 16.9442 13.0917 17.0206 12.983 17.0696C12.8743 17.1187 12.7548 17.1388 12.6361 17.1279ZM16.0961 19.0679C15.7812 19.0987 15.4648 19.0249 15.1961 18.8579C15.4467 18.5408 15.8005 18.3214 16.1961 18.2379C16.2761 18.5879 16.0461 18.6879 16.0961 19.0679ZM17.0061 19.1379C17.1661 18.6979 17.6261 18.2579 17.9061 18.8579C17.6355 19.0278 17.3253 19.1243 17.0061 19.1379ZM18.8061 18.4379C18.9561 18.2479 19.1861 17.838 19.5061 18.028C19.3225 18.2358 19.0772 18.3794 18.8061 18.4379ZM20.2661 17.4379C20.3017 17.2607 20.3846 17.0965 20.5061 16.9626C20.6276 16.8288 20.7831 16.7304 20.9561 16.6779C20.9223 16.8655 20.8357 17.0395 20.7064 17.1794C20.5771 17.3194 20.4104 17.4195 20.2261 17.4679L20.2661 17.4379ZM23.0361 17.5079C22.8161 17.4479 22.6061 17.3779 22.5561 17.1579C22.7461 17.1579 22.9061 17.158 22.9661 17.028C23.2261 16.998 23.0961 17.4779 23.0361 17.5379V17.5079ZM24.6361 17.9279H24.0761C24.2261 17.7279 24.3561 17.5079 24.6961 17.5079C24.7561 17.7479 24.6261 17.7979 24.6361 17.9579V17.9279ZM32.5361 12.8579C31.8161 13.3779 30.6861 14.2079 29.6261 13.5579C29.3261 14.8779 29.0861 16.2579 27.7561 16.5579C27.4961 16.7579 27.3561 17.0879 26.9261 17.1179C26.9261 16.8379 27.3561 16.9079 27.2661 16.4879C26.3561 16.7879 26.0361 17.6679 24.9761 17.8079C25.0761 17.0679 25.9761 16.7379 25.9761 16.2179C25.0361 16.3279 24.5061 17.4679 23.3461 17.5979C23.3461 16.5979 24.0261 16.2979 24.3461 15.6579C23.5461 15.5579 23.3461 16.6579 22.4761 16.6579C22.3361 16.0979 23.0761 15.838 23.2361 15.338C22.5361 15.158 22.5161 16.2379 21.6361 16.1079C21.6361 15.4079 22.3261 15.4479 22.4061 14.8579C21.7461 14.7379 21.5961 15.7079 20.9461 15.8579C20.9461 15.6979 21.0761 15.5679 20.9461 15.4379C19.3861 15.8779 19.4861 17.9579 17.9461 18.3579C18.0561 17.2679 19.0161 17.0279 19.3261 16.1379C17.9361 16.3779 17.7661 18.4579 16.3261 18.9079C16.5261 17.5579 17.6861 17.1679 18.3261 16.2079C17.5761 16.0979 17.2561 16.9179 16.7961 17.3079C16.2334 17.7837 15.5701 18.1257 14.8561 18.3079C14.6661 17.2379 15.8561 16.9379 16.1761 16.1579C15.2961 16.0279 15.1761 17.2379 14.2961 17.3279C14.4961 16.1879 15.3861 15.7379 15.9661 14.9679C15.3261 14.7679 14.7661 15.8079 13.9661 15.9679C13.8361 15.6379 14.7861 15.2179 14.9661 14.7179C13.9661 14.5279 13.5561 15.7979 12.8961 16.4479C12.5392 16.8104 12.0775 17.0518 11.5761 17.1379C12.1461 16.1379 13.2861 15.7179 13.8661 14.7179C13.5861 14.5379 13.3261 14.8179 13.1661 14.9279C12.1661 15.5979 11.5661 16.928 10.1661 17.278C10.4361 16.278 11.8861 15.8079 12.4561 14.8579C10.9661 14.9379 10.6061 16.7479 9.05612 17.0079C9.27612 15.7979 10.3961 15.4779 10.9261 14.5779C9.78611 14.5779 9.52609 16.1379 8.15609 16.1779C8.07609 15.1779 9.2261 14.848 9.6061 14.088C9.0661 13.928 8.8361 14.6479 8.2261 14.6479C8.2261 13.7179 9.22609 13.7479 9.40609 12.9779C8.50609 12.7379 8.40609 14.2379 7.40609 13.8879C7.58609 12.9779 8.5661 12.8879 8.8561 12.0779C7.6261 12.2379 7.2661 13.8579 5.6661 13.8879C6.0861 12.8879 7.19612 12.6379 7.74612 11.8079C6.74612 11.6379 6.19607 12.9179 5.32607 13.4679C5.05198 13.6382 4.73851 13.7347 4.4161 13.7479C4.8961 12.8079 5.92612 12.4279 6.49612 11.5979C5.26612 11.5979 4.75612 13.3179 3.37612 13.1879C4.18175 12.5891 4.88427 11.8629 5.45608 11.0379C4.45608 10.7179 4.10611 12.1779 3.23611 12.4279C3.55611 11.1279 4.85609 10.8079 5.52609 9.85791C4.40609 9.85791 3.94612 11.4079 2.68612 11.2479C2.89612 10.2479 4.01611 10.2479 4.48611 9.51794C4.48611 9.31794 4.31608 9.31792 4.14608 9.30792C4.35608 8.89792 4.8561 8.77792 4.9761 8.30792C4.1761 8.24792 3.76612 9.17795 2.81612 9.20795C2.93612 8.57795 3.74612 8.64795 3.81612 8.02795C2.96613 7.96795 2.37609 8.76792 1.52609 8.92792C1.66609 8.37792 2.2861 8.30793 2.3561 7.68793C1.7661 7.62793 1.35612 8.34793 0.626122 8.37793C0.706122 7.82793 1.31607 7.80794 1.38607 7.26794C0.946071 7.00794 0.846071 7.69791 0.386071 7.60791C0.506071 6.71791 1.29609 6.48794 1.84609 6.01794C1.84609 5.90794 1.3661 5.90794 1.3561 6.01794C1.51902 5.67451 1.76213 5.37531 2.06497 5.14557C2.3678 4.91583 2.72147 4.7623 3.09609 4.69794C3.90609 4.64794 4.41611 5.43794 5.23611 5.38794C5.23611 5.65794 5.0061 5.71794 5.0361 6.01794C5.0661 6.31794 5.4261 6.41792 5.7261 6.49792C5.70193 6.74 5.7507 6.98378 5.86611 7.19794C6.23611 7.27794 6.27612 7.00792 6.62612 7.05792C6.49646 7.26479 6.42718 7.50378 6.42611 7.74792C6.42611 7.98792 6.75611 7.96795 7.04611 7.95795C6.98611 8.49795 7.33612 8.64795 7.87612 8.58795C7.87612 8.46795 7.93607 8.46793 7.94607 8.37793C8.01607 8.00793 7.65609 8.06795 7.46609 7.95795C7.46609 7.72795 7.6661 7.64795 7.6061 7.33795C7.3861 7.15795 7.13609 7.3379 6.90609 7.4079C6.90609 6.9379 7.41608 6.8979 7.39608 6.4079C7.22608 6.1279 6.93612 6.4079 6.62612 6.4079C6.62612 6.1779 6.74607 6.05795 6.69607 5.77795C6.20607 5.77795 5.91612 6.06792 5.37612 6.05792C5.48435 5.74412 5.67863 5.46708 5.93679 5.25842C6.19495 5.04977 6.50656 4.91793 6.83608 4.87793C6.89474 4.78517 6.92587 4.67768 6.92587 4.56793C6.92587 4.45818 6.89474 4.35069 6.83608 4.25793C6.13608 4.25793 5.94611 4.83793 5.23611 4.87793C5.89611 4.49793 6.23607 3.77793 7.32607 3.87793C7.65607 2.56793 5.97612 3.68793 5.37612 3.87793C5.99612 3.07793 7.51609 2.19793 8.77609 2.87793C8.86524 2.86733 8.94826 2.82703 9.01174 2.76355C9.07523 2.70006 9.11553 2.61711 9.12612 2.52795C9.77612 2.71795 10.0661 3.24794 10.5161 3.63794C10.3361 4.10794 9.91608 4.33795 9.95608 5.02795C10.3175 5.51558 10.6513 6.023 10.9561 6.54791C11.1461 6.69791 11.3461 6.36791 11.6561 6.41791C11.6987 6.5907 11.7755 6.75318 11.882 6.89575C11.9885 7.03832 12.1225 7.15809 12.2761 7.24792C12.8261 6.81792 12.1161 6.45793 11.9961 6.06793C11.6961 5.96793 11.6161 6.06793 11.2361 6.06793C11.3161 5.70793 11.7661 5.71791 11.7261 5.23791C11.4061 5.06791 11.1961 5.51793 10.7261 5.43793C10.7261 4.88793 11.3961 4.90794 11.3561 4.26794C10.7861 4.26794 10.8161 4.87793 10.1761 4.81793C10.3461 3.81793 11.5861 3.59793 11.7061 2.81793C11.4861 2.58793 11.3161 2.97794 11.0061 2.88794C11.4475 2.32829 12.0051 1.87122 12.6405 1.54834C13.2759 1.22546 13.9739 1.04449 14.6861 1.01794C15.9861 1.09794 16.2661 2.23791 16.8361 3.23791C17.9861 1.93791 18.6661 0.697946 20.7161 0.457946C23.8461 0.0979465 25.6561 2.45792 25.7161 5.17792C25.6661 5.46792 25.3461 5.49791 25.3061 5.79791C25.2661 6.09791 25.7661 5.8879 25.7161 6.2179C25.4161 6.56789 24.5161 6.5779 24.7161 7.2179C25.4061 7.08789 25.7161 6.58789 26.1761 6.2179C26.2661 5.79789 26.0461 5.69795 25.9661 5.45795C26.4561 4.00795 29.6161 4.45791 29.7161 5.79791C29.7161 6.19791 29.2761 6.26791 29.5061 6.79791C29.2961 7.07791 28.8661 7.12792 28.6761 7.42792C29.0861 7.83792 28.6161 8.10792 29.0861 8.42792C29.4361 8.30792 29.5561 7.96791 29.7861 7.73791C29.8017 7.66384 29.7887 7.58664 29.7498 7.52173C29.7108 7.45682 29.6488 7.40902 29.5761 7.38794C29.8161 7.12794 30.0361 6.8479 30.4761 6.9679C31.6497 7.50117 32.6383 8.37138 33.3161 9.4679C34.0061 10.7479 33.1061 11.8279 32.5361 12.8879V12.8579Z" fill="white"/>
</svg>
