<svg width="63" height="79" viewBox="0 0 63 79" fill="none" xmlns="http://www.w3.org/2000/svg">
<path opacity="0.3" fill-rule="evenodd" clip-rule="evenodd" d="M60.0552 18.5821C59.6052 17.6821 57.6852 12.3221 54.8752 9.79215C53.2961 8.27629 51.5824 6.90728 49.7552 5.70212C48.1452 4.87212 44.9052 0.892107 37.7552 0.562107C36.9652 0.422107 33.2252 -0.517875 31.5952 0.392125C28.3543 -0.152288 25.0272 0.161424 21.9452 1.3021C17.2052 2.3021 15.6952 3.78212 12.3452 6.14212C7.7852 8.35213 4.65515 12.8721 3.16515 16.0721C-1.37485 23.1921 -0.694817 30.8521 3.07518 37.5021C4.0227 39.0356 5.07871 40.4994 6.23516 41.8821C7.59516 43.6821 9.23518 46.1721 10.6952 47.3721C11.6891 48.098 12.7241 48.7658 13.7952 49.3721C14.8323 50.0605 15.8336 50.8015 16.7952 51.5921C17.6852 52.2921 18.7952 52.9421 19.7952 53.6821C20.8407 54.3418 21.7984 55.1315 22.6452 56.0321C23.0659 56.9002 23.4365 57.7916 23.7552 58.7021C24.4037 59.9134 24.7824 61.2506 24.8652 62.6221C25.9452 63.3221 25.5552 65.4121 25.5952 66.8021C24.9452 67.2921 23.3152 66.8721 23.0752 67.8021C23.0752 69.1521 24.4452 68.5921 24.7652 69.5521C25.3752 71.3121 23.5352 73.7621 24.0352 75.9321C24.6552 76.5521 26.1352 78.2221 27.6552 78.3921C28.4252 78.4721 29.6552 78.0521 30.6552 78.0621C32.5752 78.0621 34.6552 78.5921 36.0052 78.3221C36.7571 78.0854 37.4424 77.6742 38.0052 77.1221C39.0052 74.9221 36.5552 72.8321 37.3252 69.8821C37.3852 69.2521 38.5552 69.2221 38.4252 68.2021C38.3352 67.4821 37.4252 67.6321 36.7452 66.9721C36.4646 66.6343 36.2417 66.2525 36.0852 65.8421C35.6452 64.0521 36.4852 63.7721 36.8952 62.5121C37.1052 61.8521 37.0251 61.0621 37.2251 60.4621C37.3551 60.0721 38.0052 59.5521 38.3352 58.7821C38.5252 58.3221 38.5352 57.7821 38.6752 57.3721C39.7552 56.5821 41.4852 55.4821 42.5852 54.7721C43.9052 53.9021 45.4752 52.5821 46.5852 51.7721C49.1189 50.0724 51.5283 48.1943 53.7952 46.1521C58.1752 42.0921 61.9352 35.7421 62.4252 29.0221C62.5411 27.92 62.5143 26.8074 62.3452 25.7121C62.0527 23.2092 61.2748 20.7873 60.0552 18.5821ZM37.8552 1.91214C39.2352 3.59214 40.8552 7.69215 41.6452 10.4822C43.0452 15.4822 43.1352 20.6322 42.7952 26.4822C42.6694 30.1634 42.0712 33.8133 41.0152 37.3421C39.0152 43.3421 35.7552 49.6721 33.8152 55.5921C33.2233 55.4995 32.6234 55.4693 32.0252 55.5021C33.2552 42.5021 34.2652 27.2621 33.5652 13.2021C33.3752 9.25212 32.0052 5.09212 31.9352 1.20212C32.6052 0.912122 37.0452 0.932144 37.8552 1.91214ZM34.5952 61.7021C34.6752 60.8721 35.4852 60.7021 35.6952 60.0221C36.1952 60.4521 35.7852 61.1921 35.6152 61.6821C35.1452 61.5921 34.9152 62.0121 34.5952 61.7021ZM35.2251 67.0321C34.4151 66.5621 34.5052 64.7522 34.6352 63.4822H35.0152C35.4252 64.3421 35.8551 66.2421 35.2251 67.0321ZM34.5652 60.5521C34.2506 61.109 33.8292 61.5984 33.3252 61.9921C33.6848 60.86 34.3828 59.8653 35.3252 59.1421C35.5152 59.4021 34.8952 60.0821 34.5652 60.5521ZM33.3652 63.7721C33.3652 64.8521 33.6352 65.6621 33.5652 66.7721C33.3674 66.8685 33.1502 66.9186 32.9302 66.9186C32.7101 66.9186 32.493 66.8685 32.2952 66.7721C32.5452 65.5321 31.2152 62.1721 33.3652 63.7721ZM31.6651 61.7721C32.5252 60.5221 32.8652 58.7721 34.5152 58.2621C33.9864 59.719 32.9824 60.9554 31.6651 61.7721ZM30.0152 61.6821C30.4252 60.2121 31.4252 59.3021 32.0852 58.0721C31.8955 59.5059 31.1526 60.8087 30.0152 61.7021V61.6821ZM31.1552 66.8721H30.6452C29.9552 66.1521 30.1352 63.8721 30.6452 63.1721C31.3952 63.7621 31.1252 66.0121 31.1552 66.8721ZM27.8352 61.2322C28.0264 60.1009 28.6369 59.0832 29.5452 58.3821C29.1981 59.4976 28.6639 60.5459 27.9652 61.4822C28.1052 61.3222 28.0752 61.2122 27.8352 61.2322ZM26.3652 52.8621C26.4752 52.1321 27.0052 51.8621 27.0852 51.0621C27.0852 50.5721 26.6252 50.6721 26.4352 50.4421C26.3652 49.8321 26.8552 49.7621 26.7852 49.1621C27.5052 49.9221 27.6552 51.2821 28.1352 52.3121C27.4752 52.3821 26.8552 53.0421 26.3652 52.8621ZM27.0552 55.0121C26.7974 54.9539 26.5667 54.811 26.3999 54.6061C26.2331 54.4012 26.1399 54.1463 26.1352 53.8821C26.7852 53.7621 27.1352 53.3021 27.5152 52.9621C28.0652 53.3521 27.2052 54.4621 27.0552 55.0121ZM25.6952 46.3821C25.1652 45.8521 24.6452 46.8722 24.3052 46.5421C24.5879 45.7097 24.9996 44.9269 25.5252 44.2221C26.0352 45.5521 26.2352 47.2221 26.7652 48.5221C26.0952 48.6621 25.5152 48.9021 24.8752 49.0821C24.9052 48.0121 25.9152 47.2721 25.6952 46.3821ZM19.9652 35.5721C20.3152 33.2121 22.2052 32.3121 22.6352 30.0321C21.2352 29.7021 20.6352 31.1421 19.4852 31.5121C19.9452 29.3721 21.4852 28.3121 22.5552 26.7221C23.0052 29.8921 23.7952 33.6221 24.0652 36.6221C23.5352 36.7821 22.5752 37.2621 21.7952 37.5621C22.0752 36.1321 23.1752 35.4821 23.3652 33.9621C21.8652 33.7021 21.2852 35.2821 19.9652 35.5721ZM20.7552 15.1821C20.8552 14.0321 22.4652 12.5921 23.4952 12.3221C23.0917 14.0894 22.7945 15.8793 22.6052 17.6821C21.3552 18.1121 20.7352 19.1421 19.3352 19.4221C19.8552 17.1821 21.8452 16.3521 22.7752 14.5021C22.2152 13.9221 21.2152 14.8521 20.7552 15.1821ZM22.2552 19.0921C22.8352 19.7921 22.4452 20.8721 22.5752 21.8921C20.7652 22.0321 20.0651 23.2321 18.6651 23.7621C19.4585 21.9333 20.6918 20.329 22.2552 19.0921ZM22.6651 25.9621C20.8251 26.3521 20.0652 27.7821 18.3952 28.3521C19.1452 25.7521 21.1952 24.3521 22.4552 22.2721C22.7574 23.4779 22.8286 24.7299 22.6651 25.9621ZM24.6651 41.0621C24.8706 41.3054 25.0251 41.5874 25.1196 41.8914C25.214 42.1954 25.2466 42.5153 25.2152 42.8321C24.8352 43.1721 24.1652 43.2421 23.8352 43.6221C23.5752 42.7021 24.5352 41.9521 24.6852 41.0621H24.6651ZM24.5052 39.6621C23.9352 39.8221 23.5052 40.1521 22.9952 40.3321C23.2599 39.2832 23.6635 38.2743 24.1952 37.3321C24.4632 38.092 24.5754 38.898 24.5252 39.7021L24.5052 39.6621ZM28.3952 53.3221C28.7252 53.3221 28.7252 53.5821 28.7852 53.8221C28.4552 53.8821 28.4152 54.2121 28.0352 54.2221C28.1391 53.913 28.2661 53.6122 28.4151 53.3221H28.3952ZM28.9252 54.3221C29.2352 54.8721 28.4852 55.4821 27.8052 55.5021C28.1508 55.077 28.5322 54.6822 28.9452 54.3221H28.9252ZM28.7552 63.2421H29.3852C29.5122 64.4629 29.3228 65.6958 28.8352 66.8221C28.3152 66.5121 28.4652 63.9321 28.7552 63.2421ZM28.8452 61.5821C29.2507 60.4552 29.7771 59.3756 30.4151 58.3621C30.5651 58.3621 30.6452 58.3622 30.6752 58.4822C30.1152 59.5522 29.9552 61.0121 28.8652 61.5821H28.8452ZM32.1052 59.7221C32.3752 59.1521 32.7952 58.7221 33.1052 58.1721C33.3252 58.7021 32.6052 59.9021 32.1252 59.7021L32.1052 59.7221ZM31.2952 1.57212C31.3299 2.33666 31.4134 3.09823 31.5452 3.85215C31.9552 7.26215 32.6652 10.7421 32.9352 14.0021C34.0852 28.1321 32.8552 43.1422 31.2452 55.5421C29.6852 55.7421 30.0952 53.8821 29.1552 53.4321C25.4152 44.5821 22.3552 28.3821 23.1552 16.6521C23.5173 12.7695 24.7293 9.014 26.7052 5.65213C27.3504 4.19528 28.1697 2.82192 29.1452 1.56211C29.4852 1.25211 31.3352 1.16212 31.3152 1.57212H31.2952ZM21.2952 11.8621C21.6352 10.5221 23.2952 9.41215 24.3952 8.35215C24.6452 10.2321 22.7552 11.1921 21.3152 11.8621H21.2952ZM25.4952 6.54215C24.1152 7.05215 22.9352 7.74215 21.5952 8.29215C22.5952 6.12215 25.3952 5.61213 26.4452 3.46213C26.0952 2.90213 25.2752 3.66211 24.6651 3.63211C25.696 2.60677 27.0082 1.91068 28.4352 1.63211C27.4652 3.26211 26.3652 4.78215 25.5152 6.54215H25.4952ZM22.9052 4.54215C22.9052 5.00215 23.3352 5.05214 23.8052 5.03214C22.8652 6.53214 21.0052 7.17214 20.4652 9.03214C21.4152 9.68214 22.4652 8.39214 23.2452 8.03214C22.8652 9.53214 20.5352 10.4421 20.1651 12.4321C20.2151 12.6021 20.3952 12.6321 20.4252 12.8121C20.9388 12.8073 21.433 12.6153 21.8152 12.2721C21.4752 13.3521 19.8152 14.2721 19.6152 15.8821C19.7652 16.4021 20.1752 15.8821 20.6152 15.9921C20.0752 17.3421 18.7752 17.9921 18.6651 19.7221C18.6651 20.0221 19.0652 20.0021 19.1852 20.2221C19.8752 20.0521 20.2452 19.5721 20.8152 19.2921C20.4752 20.8621 17.6852 22.3921 18.2652 24.4421C19.6552 24.1921 20.1252 23.0721 21.2652 22.5921C20.2652 24.7421 18.5552 26.2221 17.8452 28.6521C17.8952 28.8221 18.0752 28.8521 18.1152 29.0321C19.7452 28.8921 19.7852 27.2321 21.3752 27.0321C20.7152 28.7721 18.6952 29.8621 19.0752 32.1821C20.5752 32.3121 20.6052 30.4221 21.7152 30.5921C21.2252 32.5121 19.0652 34.0921 19.7152 36.2421C21.0152 36.1021 21.3951 34.4521 22.4751 34.5221C22.2051 35.8121 20.9652 36.8021 21.2852 38.2421C22.1252 38.5421 22.4452 37.5021 23.2852 37.4321C23.2852 38.7221 22.1652 39.5821 22.6052 40.8821C23.3952 40.9721 23.6052 40.5121 23.9852 40.2121C24.3052 41.6721 22.9852 42.6521 23.0652 44.3121C24.1652 44.4821 24.0652 43.5521 24.9552 43.5021C24.6452 44.8221 23.8552 45.6721 23.6452 47.0921C23.8952 47.6221 24.3052 47.3221 24.7852 47.1921C24.6352 47.9421 24.0551 48.8621 24.4751 49.7521C24.7306 49.7602 24.985 49.7155 25.2225 49.6209C25.4599 49.5263 25.6753 49.3837 25.8552 49.2021C26.1452 49.7821 25.0851 51.2021 26.1651 51.4921C25.9684 52.0333 25.8114 52.5881 25.6952 53.1521C22.3952 50.2021 20.6152 44.9921 18.6452 40.4721C17.3152 37.3921 15.9752 34.9621 15.3852 31.6321C14.9952 29.4921 14.1652 26.9521 14.1852 24.2821C14.1852 22.9821 14.3652 21.5321 14.4652 19.8121C14.8352 13.4821 17.2652 9.46215 20.0952 5.04215C21.7052 3.53215 23.5952 1.68213 26.0952 1.46213C25.2852 2.76213 23.3652 2.95211 22.9252 4.56211L22.9052 4.54215ZM17.6852 46.7021C17.5052 45.5321 19.0152 44.9021 18.8852 43.3621C17.7552 42.6621 16.5952 43.8521 15.8852 44.3621C15.6752 43.0721 17.6952 42.2321 17.1952 40.6421C15.5452 40.6921 15.1152 41.8921 13.9252 42.3721C14.2952 40.3721 15.8651 39.5821 16.2251 37.6121C14.4051 37.6121 13.7052 39.7621 11.9652 40.2621C12.2852 37.8721 14.2652 37.0621 14.6352 34.7221C12.6352 35.3721 12.0552 37.4121 10.2552 38.2621C10.7652 35.5521 12.7251 34.2621 13.4151 31.6921C11.8251 32.2121 10.8651 34.4021 9.41515 35.4822C9.52515 32.6021 11.9652 30.8721 12.9352 28.3921C11.8552 28.2821 11.2252 29.4521 10.5552 30.1021C9.89407 30.8882 9.14217 31.5931 8.31517 32.2021C9.19517 28.7721 11.8552 27.0321 13.3152 24.2021C12.1152 24.3321 11.2552 25.5621 10.4352 26.4321C9.70105 27.4401 8.76865 28.2875 7.69518 28.9221C8.54518 25.2521 11.6952 23.7521 13.3652 20.9221C10.9952 21.7721 9.54516 24.7521 6.98516 25.9221C7.91516 22.0421 11.4151 20.6121 13.4151 17.7521C11.1351 18.1821 9.75515 20.5621 7.41515 21.3321C8.88515 18.1221 12.3352 16.8121 14.5052 14.3321C12.1752 14.7621 10.7051 17.0821 8.22515 17.7921C9.97515 15.1421 12.6252 13.3621 15.4652 11.7921C15.6752 11.7921 15.7051 11.8821 15.7251 12.0321C14.9085 14.0005 14.3571 16.0685 14.0852 18.1821C12.3752 30.1821 17.4152 39.7721 21.1552 47.9321C20.4745 48.166 19.8069 48.4364 19.1552 48.7421C19.1552 47.7421 19.9352 47.4221 19.9852 46.4321C19.4352 45.4021 18.1852 46.3621 17.6852 46.7021ZM13.9151 43.4822C14.4151 42.4122 15.5552 41.9721 16.2852 41.1321C16.6852 42.1321 15.0452 43.3421 15.0952 44.8521C14.4752 44.6321 14.2151 44.0422 13.9151 43.4822ZM15.2752 46.8821C15.4391 46.8928 15.5939 46.9608 15.7128 47.0741C15.8316 47.1875 15.9067 47.3389 15.9252 47.5021C15.8652 47.9921 15.4852 48.1621 14.9252 48.1621C14.917 47.7108 15.0385 47.2665 15.2752 46.8821ZM8.69518 37.7521C9.12518 38.3021 8.29516 39.7521 7.86516 40.3121C8.02204 39.4245 8.30139 38.5629 8.69518 37.7521ZM6.83519 39.8321C6.55519 38.4521 7.55518 37.2021 7.75518 35.8321C7.9429 35.9589 8.09973 36.1263 8.21398 36.3219C8.32823 36.5175 8.39694 36.7363 8.41515 36.9621C7.86515 37.9121 7.32519 38.8521 6.83519 39.8321ZM8.49517 34.8321C8.27517 34.2321 7.77517 33.9421 7.81517 33.0721C9.55517 32.8621 9.81517 31.2421 10.8152 30.3221C11.0352 30.2721 11.0552 30.4221 11.0752 30.5721C10.0152 31.8021 9.75517 33.7621 8.49517 34.8221V34.8321ZM9.35515 38.8921C9.56515 38.8921 9.57516 39.0021 9.73516 39.0021C9.84516 39.6821 9.38519 39.8321 9.26519 40.2921C8.89519 39.9221 9.43515 39.3821 9.35515 38.8821V38.8921ZM11.2752 34.1321C11.4352 34.7521 10.4952 36.4421 9.82518 37.1321C9.05518 35.7821 10.7552 35.0321 11.2752 34.1221V34.1321ZM10.2752 39.8821C10.7752 39.8021 10.6152 40.4021 10.9352 40.5021C10.5859 41.4504 10.1367 42.3589 9.5952 43.2121C9.49116 42.0574 9.72385 40.8973 10.2652 39.8721L10.2752 39.8821ZM10.6452 39.2421C11.3035 38.0815 12.1366 37.0292 13.1152 36.1221C12.7395 37.5038 12.0557 38.7825 11.1152 39.8621C10.9216 39.6799 10.7595 39.4671 10.6352 39.2322L10.6452 39.2421ZM11.4652 41.3821C11.699 41.4797 11.9048 41.6342 12.0637 41.8315C12.2226 42.0289 12.3297 42.2628 12.3752 42.5121C11.5852 43.1221 11.5752 44.5121 10.5252 44.8421C10.6219 43.6386 10.937 42.4627 11.4552 41.3721L11.4652 41.3821ZM12.2251 41.2421C13.0322 40.2317 13.9477 39.3129 14.9552 38.5021C14.8152 39.6921 13.8052 41.1321 13.2652 42.3621C12.6052 42.2921 12.6652 41.4921 12.2152 41.2322L12.2251 41.2421ZM21.3052 48.4121C21.9252 48.6221 22.1652 49.2421 22.3552 49.9121C21.3052 49.7421 21.0652 50.3321 20.3552 50.4621C20.6652 49.7921 20.8952 49.0121 21.2952 48.4021L21.3052 48.4121ZM12.5552 7.2421C13.5552 7.8121 12.0652 8.45209 11.4452 8.67209C11.6052 7.99209 12.2752 7.80215 12.5452 7.23215L12.5552 7.2421ZM17.9952 5.71213C17.1652 5.13213 15.8652 6.12215 14.9952 6.29215C16.3352 4.88215 19.2252 4.9421 20.5252 3.4921C20.4752 2.7421 19.7852 3.37212 19.2552 3.26212C19.6547 2.93117 20.1246 2.69601 20.629 2.57468C21.1334 2.45335 21.6588 2.44905 22.1651 2.56211C20.9452 3.91211 19.4552 4.98214 18.3152 6.72214C17.6052 7.82214 17.3152 9.54213 16.3152 10.3321C15.9752 10.6121 15.5252 10.5721 15.1752 10.7421C13.7652 11.4621 12.5152 12.5821 10.7752 13.1421C10.2052 13.0121 11.3252 12.5521 11.2652 12.1421C12.9652 10.6921 15.1552 9.71211 16.6452 8.06211C14.8452 7.78211 12.9452 9.50215 10.9552 9.85215C12.6052 7.78215 16.2852 7.70212 17.9852 5.70212L17.9952 5.71213ZM13.6252 9.38211C12.8152 10.9221 10.1252 11.7621 9.5352 13.9321C9.80521 14.5021 10.6552 13.9321 11.0652 13.9321C9.66517 15.6721 7.87515 17.0321 6.72515 19.0021C7.90515 19.5521 8.86517 17.8321 9.87517 17.4021C9.25517 18.8421 6.55516 20.0321 6.80516 22.3121C8.25516 22.1621 8.58516 20.9421 9.80516 20.5821C8.65516 22.3921 6.14518 24.0921 6.63518 26.6421C7.97518 26.6421 8.07519 25.4521 9.14519 25.1821C8.44519 26.5221 6.9452 27.7121 7.3452 29.6821C8.7652 29.5421 9.0552 28.3321 9.9652 27.6821C9.5252 29.0821 8.07515 30.5921 7.66515 32.4421C4.76515 26.1421 5.53518 15.2221 9.57518 10.8921C11.5152 10.9321 12.2252 9.8321 13.6152 9.3721L13.6252 9.38211ZM6.44518 12.2221C6.50518 12.6221 6.10518 12.5721 6.07518 12.8721C5.75518 12.7521 6.08517 12.1521 6.43517 12.2121L6.44518 12.2221ZM7.95519 11.8121C7.7496 12.4632 7.41285 13.0653 6.96569 13.5812C6.51853 14.0972 5.9704 14.5161 5.35515 14.8121C5.83515 13.4321 6.98518 12.7021 7.94518 11.8021L7.95519 11.8121ZM6.0252 16.1821C6.6452 16.3521 5.86517 17.1321 5.93517 17.5821C5.53517 17.5021 5.56515 17.8122 5.16515 17.7322C5.25515 17.0222 5.75519 16.7021 6.01519 16.1721L6.0252 16.1821ZM5.1552 22.3121C5.2752 23.7021 5.21519 25.4921 5.39519 27.1421C4.75519 25.7521 4.01519 23.4621 5.14519 22.3021L5.1552 22.3121ZM4.37517 21.6921C4.18517 20.7521 5.08519 19.8121 5.45519 18.9921C5.96519 20.1421 5.07516 21.7021 4.36516 21.7021L4.37517 21.6921ZM4.48516 31.7521C4.56803 30.961 4.85777 30.2057 5.32518 29.5621C5.58518 30.3121 4.65515 30.9921 4.47515 31.7021L4.48516 31.7521ZM5.74517 31.0821C6.40517 32.0821 5.28515 33.4321 4.66515 34.0821C4.91798 33.0422 5.2835 32.0328 5.75518 31.0721L5.74517 31.0821ZM5.13518 16.2021C5.13518 16.5321 4.77518 17.5921 4.13518 17.7521C4.14518 16.9121 4.82517 16.7021 5.12517 16.1921L5.13518 16.2021ZM4.22515 26.2021C4.22515 27.4421 2.9452 28.4721 2.6552 29.8021C2.82059 28.4596 3.36129 27.1911 4.2152 26.1421L4.22515 26.2021ZM2.3452 27.6521C2.73822 26.5693 3.20944 25.5165 3.75518 24.5021C3.56537 25.6402 3.07517 26.7069 2.33519 27.5921L2.3452 27.6521ZM3.2752 23.8121C2.9652 23.4621 3.49517 22.8121 3.62517 22.5221C4.08517 22.9621 3.27519 23.2921 3.26519 23.7521L3.2752 23.8121ZM1.75518 27.7021C1.65194 24.2167 2.21885 20.7438 3.42516 17.4721C3.99516 20.8021 1.97515 23.3121 2.35515 26.1621C2.12088 26.6615 1.92045 27.1759 1.75518 27.7021ZM4.55516 27.6321C4.76516 27.6321 4.77518 27.7521 4.94518 27.7521C5.07518 28.7521 3.33518 31.6821 2.38518 32.7521C2.91208 30.9988 3.62269 29.3061 4.50518 27.7021L4.55516 27.6321ZM2.44518 35.0721C2.28518 34.2521 2.72515 34.0121 2.91515 33.5321C2.99515 33.8621 2.81519 34.9221 2.39519 35.1021L2.44518 35.0721ZM3.9052 37.9621C3.7952 36.8621 2.85519 36.6321 2.70519 35.5721C3.02519 35.4121 3.57519 35.4921 3.58519 35.0421C4.05519 35.2421 3.77518 36.2321 4.75518 35.9021C4.34518 36.5521 4.54515 37.7021 3.85515 37.9921L3.9052 37.9621ZM4.70519 39.0921C4.65933 39.029 4.63245 38.9541 4.62767 38.8763C4.6229 38.7984 4.64041 38.7207 4.67821 38.6525C4.71601 38.5843 4.77251 38.5282 4.84105 38.4909C4.9096 38.4537 4.98734 38.4367 5.06517 38.4421C5.01517 38.8021 5.0052 39.1321 4.6552 39.1221L4.70519 39.0921ZM6.70519 32.9321C6.93519 34.2921 5.56519 35.1321 5.26519 36.4021C5.33165 35.1306 5.82485 33.9187 6.66515 32.9621L6.70519 32.9321ZM6.00518 40.8421C5.20518 40.5421 5.9052 39.6321 6.0952 39.1821C6.3752 39.6021 6.0352 40.4321 5.9652 40.8721L6.00518 40.8421ZM5.81517 38.4221C6.00271 37.0197 6.44677 35.6638 7.12517 34.4221C7.49517 34.5121 7.4552 35.0221 7.6552 35.2921C6.88778 36.2588 6.24909 37.321 5.75518 38.4521L5.81517 38.4221ZM6.9052 41.0721C7.1952 41.2021 6.96516 41.8721 7.05516 42.2121C6.35516 42.1521 6.47516 41.3521 6.86516 41.1021L6.9052 41.0721ZM7.32518 42.7121C7.44518 42.2521 7.98517 42.1921 8.06517 41.7121C8.42517 42.0221 8.06515 43.1221 8.85515 42.9621V44.2421C8.07515 44.0021 7.84521 43.2021 7.28521 42.7021L7.32518 42.7121ZM10.1952 45.7121C9.65518 45.4921 9.19518 45.2221 9.19518 44.4621C9.74518 44.4621 9.83518 44.0821 10.0752 43.8121C10.3752 44.3021 10.0752 45.5121 10.3752 45.7121C10.543 45.7588 10.7189 45.7695 10.8912 45.7437C11.0635 45.7178 11.2284 45.656 11.3752 45.5621V46.8321C10.5852 46.8421 10.2852 46.3821 10.1552 45.7021L10.1952 45.7121ZM12.2752 47.7121C12.3452 47.1521 12.9252 47.0821 13.0152 46.5521C13.6352 46.6721 12.8552 47.6521 13.3052 48.0721C12.7552 48.3521 12.6052 47.9121 12.2352 47.7021L12.2752 47.7121ZM11.9952 46.7121C11.5252 45.2921 12.3252 44.0521 12.5452 42.8721C14.4552 43.7021 13.2752 45.9921 11.9552 46.7021L11.9952 46.7121ZM14.3852 45.3821C14.7752 45.3221 14.6552 45.7921 14.7852 46.0021C14.5052 46.5321 14.2651 47.0821 13.6651 47.3021C13.7551 46.6021 13.8152 45.7021 14.3452 45.3821H14.3852ZM15.8952 49.9221C14.8952 49.7721 14.4452 49.0121 13.6952 48.5821C13.7292 48.4129 13.8272 48.2633 13.9688 48.1646C14.1104 48.0658 14.2846 48.0255 14.4552 48.0521C14.4195 48.2396 14.4381 48.4334 14.509 48.6106C14.5799 48.7878 14.7 48.941 14.8552 49.0521C15.4352 49.0521 15.5852 48.5821 16.1152 48.5121C16.1032 48.9929 16.0155 49.4687 15.8552 49.9221H15.8952ZM15.1452 44.9822C16.8152 45.1322 16.7252 43.5921 18.2952 43.6321C18.0752 45.1221 16.9352 45.7421 16.9852 47.4822C16.5044 47.2331 16.0858 46.8791 15.7604 46.4463C15.4349 46.0136 15.211 45.5132 15.1052 44.9822H15.1452ZM16.7552 49.7021C16.731 49.5929 16.7292 49.4798 16.7498 49.3698C16.7704 49.2599 16.8131 49.1552 16.8752 49.0621C17.0419 49.1383 17.1817 49.2632 17.2762 49.4202C17.3708 49.5772 17.4158 49.7591 17.4052 49.9421C17.0652 49.9121 16.9852 49.7021 16.7552 49.7021ZM17.0952 47.6521C18.0352 47.6521 18.4552 46.3921 19.2352 46.5821C18.8032 47.3806 18.5219 48.2518 18.4052 49.1521C18.437 49.2399 18.4887 49.319 18.5564 49.3833C18.6241 49.4475 18.7059 49.495 18.7952 49.5221C19.5752 49.5221 19.6552 48.9421 20.3052 48.8521C20.1552 49.7921 19.6052 50.3421 19.6052 51.4121C18.2981 50.5198 17.3905 49.153 17.0752 47.6021L17.0952 47.6521ZM18.8452 51.8121C19.0431 51.9094 19.2166 52.0497 19.3533 52.2228C19.49 52.3958 19.5863 52.5971 19.6352 52.8121C19.0052 52.7521 18.5552 52.3221 18.8252 51.7621L18.8452 51.8121ZM19.7352 51.5421C20.0746 51.5187 20.4024 51.409 20.6877 51.2235C20.9729 51.0381 21.2061 50.7829 21.3652 50.4822C21.8852 51.0222 20.8752 52.0421 20.7752 52.7921C20.2452 52.4921 19.7552 52.2521 19.7552 51.4921L19.7352 51.5421ZM21.4352 53.6621C21.6752 53.1821 22.2652 53.0421 22.6852 52.7421C23.2252 52.9621 22.5152 53.7421 22.5952 54.2721C22.6752 54.5821 23.0852 54.5421 23.3652 54.6321C22.7552 55.5721 21.9851 53.8921 21.4151 53.6121L21.4352 53.6621ZM24.1651 55.8921C23.9251 55.2621 24.8051 53.5621 23.2251 53.8921C23.4589 53.4514 23.6177 52.975 23.6952 52.4822C23.2152 51.7022 22.2952 52.6021 21.5352 52.6621C21.5352 51.5821 22.4052 51.2421 22.3652 50.0921C23.7852 51.9121 25.1652 53.7722 26.4452 55.7322C25.7552 56.0322 24.8252 55.5421 24.1452 55.8421L24.1651 55.8921ZM25.8752 58.3921C26.4152 58.3021 26.4052 58.7921 26.8752 58.7521C26.4552 59.5521 26.4652 60.7521 25.7852 61.3221C25.1552 60.5921 25.7552 59.1021 25.8552 58.3421L25.8752 58.3921ZM24.9852 74.5821C24.6452 74.1721 24.9852 73.3421 25.0752 72.9221C25.4352 73.3321 25.0452 74.1021 24.9652 74.5321L24.9852 74.5821ZM25.7952 76.3521C25.6452 76.3521 25.5652 76.3522 25.5452 76.4822C25.1352 76.4822 25.2452 75.7921 25.5452 75.7121C25.8452 75.6321 25.7552 75.9821 25.7552 76.3021L25.7952 76.3521ZM25.5152 69.7322C25.3152 69.3422 25.5152 68.8721 26.1252 68.9521C26.0352 69.2921 25.9252 69.6421 25.4952 69.7021L25.5152 69.7322ZM26.7152 66.9021C26.7152 66.0721 26.3852 63.9021 27.0052 63.2021H27.3952C27.3352 63.8521 28.2452 66.7021 26.6952 66.8521L26.7152 66.9021ZM26.5752 61.0521C26.6852 59.7421 27.5751 59.1821 28.1651 58.3421C28.4352 59.0221 27.1852 60.3321 26.5552 61.0021L26.5752 61.0521ZM29.8252 69.1221C29.9752 69.1221 30.0552 69.1221 30.0852 69.2421C29.393 70.2668 28.6062 71.2244 27.7352 72.1021C27.9252 70.6021 29.2952 70.2421 29.8052 69.0721L29.8252 69.1221ZM30.8252 69.2221C31.0452 69.1721 31.0652 69.3221 31.0852 69.4721C29.8152 70.7521 29.2052 72.6621 27.8852 73.8821C28.3152 71.7521 29.9652 70.8421 30.8252 69.1721V69.2221ZM32.3552 69.3121C30.8152 71.3121 29.4652 73.4421 28.0452 75.5321C29.0452 73.4921 30.4452 70.8021 32.3552 69.2621V69.3121ZM33.1252 69.4221H33.7552C31.9052 71.8321 30.3552 74.5521 28.4652 76.9321C29.1652 74.0521 31.4652 71.7021 33.1252 69.3721V69.4221ZM30.3552 76.1121C30.9252 73.5821 33.1452 71.5621 34.6452 69.5121C33.3253 71.7656 31.8934 73.9517 30.3552 76.0621V76.1121ZM33.9552 72.2021C33.7169 72.6281 33.4245 73.0213 33.0852 73.3721C33.1452 73.1621 33.5052 72.1921 33.9552 72.1521V72.2021ZM32.4252 77.4621C32.4809 77.1991 32.6016 76.9543 32.7763 76.7499C32.951 76.5455 33.174 76.3882 33.4252 76.2922C33.2452 76.9921 33.8952 76.8321 34.0752 77.1721C33.9452 77.9021 32.9952 77.6121 32.4252 77.4121V77.4621ZM34.6552 75.1221C34.7452 74.0021 36.0352 72.9521 36.4852 71.7621C36.4552 72.8821 35.1952 73.9721 34.6552 75.0721V75.1221ZM37.3352 75.5621C36.8852 75.5621 36.7352 75.8921 36.3352 75.9721C36.3352 75.4321 36.7552 75.2121 36.8152 74.6821C36.8152 74.5821 36.6752 74.5621 36.6752 74.4321C36.5553 74.4115 36.432 74.4261 36.3202 74.474C36.2084 74.5219 36.1129 74.6011 36.0452 74.7021C35.6552 74.1921 36.5152 73.8322 36.5252 73.2922C37.2152 73.5522 37.2052 74.6121 37.3352 75.5121V75.5621ZM36.6952 69.7221C36.6352 71.2321 35.4252 72.1521 34.6952 73.2021C34.1048 74.3365 33.3117 75.3533 32.3552 76.2021C33.5669 73.9339 34.9023 71.7339 36.3552 69.6121C36.5852 69.5221 36.6652 69.5721 36.6952 69.7021V69.7221ZM36.2952 69.0921C35.7552 69.8621 33.6152 72.0921 35.4252 70.0021C35.5352 69.4821 35.6952 69.0621 36.2952 69.0422V69.0921ZM34.4552 55.6321C34.3852 55.1821 34.8951 54.4921 35.1651 53.7221C36.0452 51.2321 36.9152 49.1221 37.8052 46.7821C39.1352 43.2421 40.3952 40.7021 41.4052 37.5321C43.7952 29.9821 44.4052 18.0821 42.2752 10.1421C41.2152 6.14212 40.4552 4.27213 38.1252 1.58213H38.2552C42.6452 1.76213 45.9952 4.15213 48.6852 6.58213C50.9483 11.2274 52.0336 16.3583 51.8452 21.5221C51.6072 27.1101 50.5353 32.6311 48.6651 37.9021C47.8351 40.1021 46.2552 42.2021 45.1252 44.2221C43.2047 47.635 40.8851 50.8072 38.2152 53.6721C37.8552 54.0721 36.4252 55.8421 36.2152 56.0121C35.6018 56.0181 34.9967 55.8703 34.4552 55.5821V55.6321ZM36.7352 56.1421C38.0252 54.0721 40.1452 52.5121 41.7352 50.5121C43.2084 48.4035 44.5445 46.2022 45.7352 43.9221C47.1384 41.7467 48.3592 39.4589 49.3852 37.0821C52.6152 28.3221 53.5252 16.4921 50.0452 6.82212C49.9052 6.82212 54.3052 9.82212 55.7452 11.8921C56.8952 13.5621 58.7452 16.5821 58.9952 18.1421C59.4352 21.0421 58.4052 25.0021 57.4452 27.8521C55.1427 34.7253 51.5934 41.1153 46.9751 46.7021C46.1051 47.7821 43.6951 50.5721 42.9751 51.1921C41.5351 52.4621 39.2352 54.6421 37.6352 56.1921C37.3382 56.2153 37.0394 56.1814 36.7552 56.0921L36.7352 56.1421ZM56.0252 42.9921C52.6252 47.1221 47.8752 50.2221 43.4852 53.4721C41.9681 54.7373 40.286 55.7903 38.4852 56.6021C38.2952 56.5521 37.9252 56.4121 38.0852 56.2821C38.7252 55.7221 39.5452 55.0721 39.9252 54.7521C40.5552 54.2121 41.2352 53.6221 41.7852 53.0521C42.9952 51.8221 44.6552 50.3821 45.7852 49.1621C47.3734 47.3435 48.8494 45.43 50.2052 43.4321C54.3502 37.9295 57.2812 31.6105 58.8052 24.8921C59.1252 23.4321 59.3652 21.4221 59.8052 20.0321C59.9152 20.0321 59.9252 20.0821 59.9352 20.1621C64.1252 27.8821 60.2652 37.7921 56.0252 42.9421V42.9921Z" fill="white"/>
</svg>
