<svg width="77" height="72" viewBox="0 0 77 72" fill="none" xmlns="http://www.w3.org/2000/svg">
<path opacity="0.3" fill-rule="evenodd" clip-rule="evenodd" d="M72.4995 51.2106C72.1979 50.9157 71.4201 50.278 71.4042 50.1106C71.3883 49.9432 71.8645 49.7279 71.8328 49.3134C71.801 48.8989 71.674 48.9627 71.2375 48.7236C70.5138 49.5306 69.8379 50.3797 69.2135 51.2664C68.4198 52.3665 68.0943 54.2876 66.2608 54.0644C66.2581 53.774 66.1988 53.4869 66.0862 53.2194C61.9111 49.8236 59.3712 44.8176 56.4661 39.9869C53.9169 36.0011 51.5852 31.8792 49.4813 27.6392C48.4574 25.4391 47.3858 23.2709 46.4413 21.023C45.4968 18.7751 44.5284 16.5032 43.4013 14.327C41.1948 10.0863 38.4643 6.25206 36.1387 2.20259C36.3452 1.53497 36.5148 0.856321 36.6467 0.169854C36.218 0.257539 36.1625 -0.0293992 35.8053 0.00248631C35.4481 0.0343718 35.4561 0.440904 35.21 0.592361C35.0513 3.49394 32.9241 4.63384 31.5826 6.35565C30.7889 7.41585 30.2809 8.69925 29.4713 9.75147C28.5998 10.7535 27.8039 11.8193 27.0901 12.94C26.9155 13.1951 26.7488 12.94 26.4948 13.1074C26.3757 13.2509 26.5742 13.5379 26.4948 13.9046C25.0264 16.4076 23.3199 18.6874 21.9388 21.2781C21.7878 21.3959 21.6152 21.4826 21.4308 21.5332C21.3117 22.6572 20.7085 23.1275 20.2481 23.9246C19.2718 25.5827 18.3749 27.2008 17.4621 28.7553C15.5492 32.0315 13.9459 35.4592 11.9774 38.5919C10.009 41.7247 8.13578 45.0168 6.42132 48.3489C4.93704 48.0938 3.20672 48.2692 2.87336 49.4489C2.30187 51.4737 3.24639 54.5347 2.70666 56.0572C2.25423 56.1928 1.70656 56.2406 1.524 56.6551C1.524 57.4522 2.06374 57.7552 2.61936 58.0102C3.41309 59.5407 4.34175 60.9198 5.23866 62.3387C7.23093 63.8054 8.11989 66.5476 9.62798 68.3571C10.136 68.9629 10.9059 69.4332 11.0646 70.2224C8.82631 70.7883 5.826 70.6927 3.96866 71.4101C2.913 70.9478 0.341305 70.7485 0 72C0.793733 71.7369 1.11919 71.3782 1.8653 71.3224C2.61141 71.2666 3.31784 71.8645 4.05601 71.8326C4.52431 71.8326 5.01639 71.3941 5.40532 71.3224C5.79425 71.2507 6.15937 71.3224 6.50862 71.3224C8.02465 71.1709 9.68356 70.7485 11.2313 70.4774C13.7157 70.039 15.2 71.1151 17.0574 71.2746C19.0655 71.4101 21.1768 70.342 23.4707 70.1666C24.6328 70.1154 25.797 70.201 26.9393 70.4216C28.4632 70.7006 30.2016 71.6174 31.5826 71.6094C32.3764 71.6094 33.0828 71.1789 33.8607 71.0992C35.5196 70.9318 37.1943 71.5377 38.9247 71.6971C40.655 71.8565 41.6551 71.3065 42.7266 71.0992C43.4783 70.9557 44.2399 70.8704 45.0046 70.8441C46.5286 70.8441 47.5525 71.4819 48.9733 71.6413C51.6006 71.8884 53.5373 70.6289 55.8153 70.4536C57.6726 70.3101 59.5935 70.7963 61.554 70.7086C62.0699 70.7086 62.5461 70.4376 63.07 70.3738C64.7607 70.1506 66.7291 69.6644 68.3086 69.776C69.8881 69.8876 71.055 70.8043 72.444 70.876C72.9242 70.8875 73.4046 70.8609 73.8806 70.7963C74.1902 70.7963 74.8093 70.9159 75.0633 70.4536C74.1743 70.2224 73.0552 70.597 72.0233 70.4536C70.4359 70.2383 68.8484 69.0027 66.872 69.5209C67.0109 69.2501 67.1251 68.9673 67.2133 68.6759C66.6974 67.5519 66.9593 65.8939 66.9514 64.1801C66.9514 61.0633 66.5465 57.8747 69.0706 57.3964C69.2312 56.9336 69.2881 56.441 69.2373 55.9536C70.6264 57.2689 72.1503 58.4486 73.5393 59.7719C74.7905 58.7477 75.9486 57.614 77 56.384C76.1666 53.9289 74.1823 52.8129 72.4995 51.2106ZM65.5861 54.7977C65.4562 55.007 65.2837 55.1862 65.0798 55.3235C64.876 55.4609 64.6455 55.5534 64.4035 55.5949C64.4749 54.9572 65.1337 54.439 65.5861 54.7977ZM63.8161 54.2876C63.6177 53.9129 64.2051 53.61 64.3241 53.2752C64.4749 53.5781 63.9749 54.0006 63.8161 54.2637V54.2876ZM62.1255 64.8895C61.9826 64.6264 61.9588 63.7656 62.2128 63.6141C62.9351 62.7612 63.2764 61.5256 64.1574 60.8161C63.8796 61.9082 62.8398 62.9445 62.2128 63.9569C63.316 63.9569 63.4113 62.2271 64.2368 61.6611C63.7244 62.8447 63.0098 63.9292 62.1255 64.8656V64.8895ZM63.3081 64.8018C62.8716 64.9294 62.7525 65.3758 62.2128 65.3997C62.7287 64.4192 63.7526 63.9489 64.0701 62.7691C64.4194 63.375 63.3081 63.933 63.3081 64.7779V64.8018ZM58.2441 65.4794C59.1886 65.2482 59.6411 64.5149 60.2682 63.9569C60.0935 65.5511 57.8393 65.87 56.5534 66.6671C56.7757 66.0693 57.4504 65.9338 57.9028 65.5671C57.9028 65.1048 58.0616 65.033 58.3235 64.7141C58.5457 64.8656 58.1012 65.0808 58.2124 65.4555L58.2441 65.4794ZM60.1888 65.3997C60.1888 66.1968 58.9585 66.428 58.2441 66.7548C58.3711 66.1012 59.4903 65.4396 60.1888 65.3758V65.3997ZM32.3208 67.5201C32.8536 66.9567 33.4181 66.4244 34.0115 65.9258C33.0034 66.2447 31.9636 67.265 30.6381 67.5201C30.7016 66.5635 31.6144 66.4599 31.9875 65.8222C30.8127 65.9497 29.7412 66.8983 28.5267 67.265C28.2331 66.6911 29.6856 66.4678 29.7888 65.7345C28.63 65.9019 27.5108 66.8346 26.2487 67.1773C26.0027 66.6193 27.3362 66.2606 27.5981 65.6468C26.4392 65.7106 25.5026 66.707 24.2168 66.9222C24.4867 66.1251 25.3598 65.9178 25.7408 65.2243C26.4869 65.328 26.7091 64.8975 27.1774 64.7141C26.9552 64.4511 26.7726 64.9294 26.3837 64.8018C27.1774 63.7735 27.9235 62.3466 29.9317 62.7691C29.9317 63.0561 29.6777 63.0242 29.5904 63.1916C29.6936 63.1916 29.7412 63.1916 29.7571 63.1119C29.5348 63.909 28.0505 64.1641 27.8997 65.312C28.6379 65.5671 29.0983 64.8178 29.7571 64.7141C29.2888 64.5308 28.9078 65.1526 28.241 65.0569C28.8363 64.1322 29.8285 63.5981 30.6222 62.8488C31.1306 62.8765 31.6369 62.9351 32.1383 63.0242C31.827 63.37 31.4559 63.6563 31.0429 63.8692C31.0826 63.9967 31.154 63.8692 31.2969 63.8692C30.9239 64.4033 30.3365 64.7142 30.0269 65.312C30.7016 66.1091 31.908 64.8178 32.6462 64.5149C32.0827 64.6025 31.3525 65.2562 30.4476 65.312C31.3207 63.9967 32.4478 62.5699 34.7576 63.1916C33.9333 63.7836 33.2657 64.569 32.8129 65.4794C32.8129 65.5512 32.9002 65.5671 32.9002 65.6468C33.6398 65.4601 34.3303 65.1148 34.9242 64.6345C34.3845 64.5866 33.8924 65.2801 33.1542 65.312C33.948 64.1721 34.8846 62.8409 36.8689 63.359C36.5603 63.6485 36.1833 63.8543 35.7735 63.9569C35.7735 64.0685 35.9799 64.0286 36.1069 64.0366C35.6624 64.6903 34.8449 64.9772 34.5195 65.7345C34.5195 65.8062 34.6068 65.8222 34.6068 65.9019C35.9323 65.9417 36.8768 64.8497 37.9801 64.3794C37.0673 64.5627 36.218 65.5511 34.9401 65.6468C35.845 64.4431 37.2737 62.9365 39.3295 63.4467C39.1228 63.6771 38.8417 63.8267 38.5358 63.8692C38.5358 64.8576 36.8848 64.8576 37.0118 66.2606C36.0464 66.8502 34.9933 67.2807 33.8924 67.536C34.1702 66.8505 34.9639 66.691 35.3211 66.0932C34.1543 66.3323 33.7019 67.3766 32.3208 67.4962V67.5201ZM33.6781 67.9425C33.2416 68.0063 33.059 67.823 32.6621 67.8549C32.7574 67.552 33.1701 67.5679 33.3368 67.3447C33.6066 67.3686 33.5432 67.7433 33.6781 67.9187V67.9425ZM31.9875 67.8549H30.8921C31.154 67.4164 31.789 67.3447 32.1541 67.0099C32.6224 67.1614 31.7493 67.3287 32.0192 67.8309L31.9875 67.8549ZM30.2968 67.7672C27.2727 67.5759 24.3676 67.6954 21.4308 67.3447C22.2245 66.8903 23.1056 66.4758 23.9628 66.0773C23.1135 66.1251 22.3754 66.994 21.1768 67.0099C21.407 66.157 22.2563 65.9418 22.6135 65.2243C21.9706 65.0968 21.4228 65.7744 20.8434 66.0215C21.0736 66.2208 21.3593 65.7504 21.6848 65.7664C21.5498 66.2526 20.3434 66.8266 21.0974 67.3606C20.2561 67.528 19.1131 67.265 18.0574 67.3606C18.9444 67.0681 19.7942 66.6722 20.5894 66.1809C19.9386 66.2526 19.1766 66.978 18.1368 66.9381C18.9306 65.6308 20.3752 64.9374 21.5181 63.9728C21.2165 63.8692 20.8117 64.3873 20.4228 64.483C20.8434 63.4945 22.2087 62.7133 22.9548 61.7647C23.3516 61.7647 23.5342 61.9162 23.9628 61.8524C23.0512 62.8368 22.2328 63.9042 21.5181 65.041C22.4309 65.4634 23.1532 64.2438 23.8993 63.9409C23.8993 63.8692 23.9787 63.8532 23.9787 63.7656C23.3316 64.1837 22.6552 64.554 21.9547 64.8736C22.6263 63.7204 23.5162 62.7103 24.574 61.9002C25.111 61.93 25.6433 62.0182 26.1614 62.1633C25.4049 62.9706 24.7272 63.8488 24.1374 64.7859C24.701 65.2801 25.209 64.3714 25.7249 64.2757C25.2883 64.0206 25.0582 64.6743 24.5422 64.6185C25.1036 63.7052 25.8179 62.8962 26.6536 62.2271C27.1695 62.2271 27.4473 62.4981 28.0029 62.4822C27.9147 62.6457 27.7949 62.7899 27.6504 62.9063C27.5059 63.0226 27.3397 63.1088 27.1616 63.1597C27.2171 63.3191 27.4076 63.2235 27.2409 63.4148C26.4194 64.5027 25.3232 65.3504 24.066 65.87C24.2327 65.9816 24.7248 65.6946 24.9073 65.5352C24.9073 66.0294 24.0104 66.3323 23.812 66.8903C23.8596 67.0179 23.939 67.1055 23.9787 67.2331C25.0502 67.1135 25.5661 66.436 26.5107 66.2128C26.2884 66.5715 25.5979 66.8505 25.7566 67.3128C26.8599 67.6317 27.7648 66.3563 28.9316 66.2128C28.6776 66.699 28.0267 66.7708 27.8362 67.3128C27.8362 67.4244 27.9791 67.4483 28.0029 67.5679C28.9401 67.2644 29.8442 66.8665 30.7016 66.3802C30.9 66.6353 30.0587 67.0577 30.2968 67.7433V67.7672ZM33.6067 62.7691C33.8051 62.5698 34.3607 62.7691 34.702 62.6815C34.4877 62.8568 33.9321 62.6894 33.6067 62.7691ZM36.7816 66.5874C36.6149 67.1773 35.9006 67.2171 35.8529 67.9425H33.8448C34.8449 67.4802 35.7815 66.978 36.7816 66.5635V66.5874ZM39.3136 65.2243C38.6627 65.4156 38.2421 65.8461 37.3769 65.8222C38.3214 64.3953 39.7581 62.9764 42.3536 63.5344C40.7185 65.0091 39.1231 66.994 36.3609 67.5998C37.1607 66.5886 38.1748 65.7689 39.3295 65.2004L39.3136 65.2243ZM40.4169 65.8222C41.2821 64.6105 42.5282 63.1278 44.5522 63.6141C43.3776 64.6695 41.9631 65.4195 40.4327 65.7982L40.4169 65.8222ZM46.2429 63.6141C46.0047 64.1163 45.2904 64.1322 44.8856 64.467C44.4735 64.8916 43.9464 65.1854 43.3696 65.312C43.6152 64.7589 44.024 64.2949 44.5407 63.9827C45.0574 63.6705 45.6571 63.5252 46.2588 63.5663L46.2429 63.6141ZM38.3849 67.0099C38.3849 67.2251 38.1389 67.265 38.1309 67.5201C38.9882 67.9824 39.8533 67.0577 40.5835 66.8345C40.9804 66.8903 40.3058 67.1295 40.4169 67.4324C41.2106 67.9027 42.0044 66.986 42.7981 66.8345C42.2425 66.6831 41.7107 67.273 41.0201 67.265C40.7503 66.8585 41.9964 66.5555 42.1154 65.9895C40.8534 66.2446 39.9089 67.273 38.7421 67.3447C38.5278 66.978 39.6549 66.5476 40.0041 66.1649C41.544 66.1649 42.1076 65.1526 43.2981 64.8018C43.1375 64.9995 43.0235 65.2312 42.9647 65.4794C44.0204 65.8461 44.7903 64.5069 45.7508 64.2119C45.7508 64.1402 45.8302 64.1243 45.8302 64.0366C45.8302 64.5787 44.5522 64.9453 44.9015 65.8222C46.0988 65.3024 47.2333 64.6472 48.2828 63.8692C47.0287 64.1721 46.4731 65.1605 45.1555 65.3997C45.9492 64.4591 46.4572 63.3112 48.3701 63.5344C48.5447 63.5344 48.5288 63.654 48.5368 63.7815C48.7068 63.6475 48.9097 63.5621 49.1241 63.5344C48.4494 64.491 47.2906 64.9692 46.8461 66.1649C46.6874 66.1649 46.6318 66.3403 46.4255 66.3323C46.481 66.412 46.6159 66.42 46.5921 66.5874C46.2495 66.778 45.9602 67.0521 45.7508 67.3845C45.6873 67.6157 45.9175 67.5599 45.9175 67.7273C46.5171 67.6059 47.0899 67.3763 47.6081 67.0498C47.2509 66.8903 46.8144 67.4005 46.2588 67.3048C47.5348 66.228 48.9211 65.2901 50.3941 64.5069C49.6004 65.304 49.2432 66.5715 47.8621 66.7947C48.3622 67.1215 47.624 67.2172 47.7748 67.8947C48.0923 68.2773 48.7035 67.8469 49.0448 67.7273C48.8384 67.4961 48.4892 67.8469 48.1161 67.7273C48.1161 67.0657 48.7273 66.986 49.0448 66.6273C50.3385 66.6273 51.2593 65.4555 52.2197 64.8417C51.1243 65.1047 50.6322 65.9975 49.6004 66.2845C49.775 64.8975 51.2355 64.1721 52.2197 63.3192C53.5294 63.3192 54.6565 63.0959 56.1011 63.0641C55.0336 63.9801 53.8737 64.7815 52.6403 65.4555C53.0055 64.4033 54.2278 64.2518 54.7517 63.3351C53.9309 63.7042 53.1354 64.1276 52.3705 64.6025C52.5928 64.8815 52.7912 64.4113 53.0452 64.4352C52.8309 64.8736 52.0133 65.1446 52.2911 65.7903C51.8784 66.3961 50.9021 66.3005 51.1084 67.3208C52.299 67.3208 53.1325 66.2526 54.3945 66.0454C54.077 66.4599 53.5293 66.6432 53.3865 67.2331C53.3865 67.3447 53.5293 67.3686 53.5532 67.4882C54.6803 67.3766 55.3232 66.7707 56.1725 66.3881C56.3471 66.4917 55.9582 66.7309 55.9979 66.978C56.7043 67.4802 57.2757 66.4758 57.9425 66.3881C57.8222 66.4911 57.7285 66.6217 57.669 66.7687C57.6096 66.9158 57.5863 67.0751 57.6012 67.2331C50.655 68.3714 43.595 68.6392 36.5832 68.0302C37.1166 67.585 37.7202 67.2321 38.3691 66.986L38.3849 67.0099ZM51.4736 63.359C50.1801 64.449 48.7296 65.3359 47.1716 65.9895C48.2352 64.7062 49.0051 63.1597 51.4895 63.3351L51.4736 63.359ZM57.1329 65.6468C56.0058 66.1012 55.1803 66.8584 53.8389 67.0896C54.0532 66.4599 54.6326 66.2128 55.1882 65.9019C55.5613 64.8417 56.7757 64.5866 57.4663 63.8692C57.5298 64.2757 56.6249 64.9692 57.1487 65.6229L57.1329 65.6468ZM54.6009 65.4794C55.5057 64.2199 56.2836 62.817 58.3949 62.7691C58.5298 63.0641 58.0139 63.3351 57.7203 63.5663C56.7215 64.2534 55.6853 64.8841 54.6167 65.4555L54.6009 65.4794ZM54.1722 65.8222C53.2118 66.0374 52.6721 66.691 51.6402 66.8345C52.8039 65.7553 54.0456 64.7642 55.3549 63.8692C55.2041 64.3634 54.3707 64.9852 54.1881 65.7982L54.1722 65.8222ZM57.4186 65.1605C57.5683 64.4791 57.9239 63.8607 58.4368 63.3899C58.9496 62.919 59.5948 62.6187 60.284 62.53C59.4423 63.5239 58.4797 64.4077 57.4186 65.1605ZM58.9346 61.1749C54.3708 61.758 49.7713 62.0111 45.1713 61.9321C39.4168 61.7887 33.4241 61.3024 28.0346 60.9995C27.0345 60.9437 25.9868 60.8082 24.9947 60.6647C24.0025 60.5212 22.9071 60.5052 21.9547 60.3219C20.2878 60.011 18.8591 59.5248 16.978 59.2219C16.4858 59.1421 15.8191 59.1501 15.454 58.7117V58.5443C15.454 58.4487 15.454 58.3928 15.5334 58.3769C20.0761 59.3666 24.6753 60.0747 29.3046 60.4973C30.8921 60.6009 32.4796 60.9676 34.067 60.9995C34.71 60.9995 35.3767 60.7763 36.0117 60.7444C37.496 60.6886 39.0914 60.9357 40.655 60.9995C41.9726 61.0633 43.2902 60.848 44.5364 60.9198C44.965 60.9198 45.3301 61.127 45.8063 61.1749C48.1698 61.31 50.5403 61.2513 52.8943 60.9995C55.855 60.8002 58.9347 60.4335 61.3397 60.4973C60.6207 60.9666 59.7758 61.203 58.9188 61.1749H58.9346ZM18.9147 61.1749C17.9225 62.2669 16.978 63.4068 15.454 63.9728C15.9614 62.8321 16.712 61.8171 17.6527 60.9995C18.1845 60.8879 18.4146 61.1749 18.8988 61.1749H18.9147ZM13.684 42.2668C12.963 42.5057 12.2289 42.7026 11.4853 42.8566C12.0013 42.4979 13.3585 40.9355 13.6681 42.2269L13.684 42.2668ZM11.652 41.6689C11.9298 41.3102 12.9537 40.5689 13.176 41.4138C12.5807 41.3899 12.1759 41.5892 11.6361 41.629L11.652 41.6689ZM19.002 52.6933C19.5258 52.1512 20.5894 52.1592 21.1927 51.673C21.2381 51.6707 21.2835 51.678 21.3259 51.6944C21.3684 51.7108 21.4069 51.736 21.4391 51.7683C21.4712 51.8006 21.4963 51.8393 21.5127 51.8819C21.529 51.9245 21.5362 51.9701 21.534 52.0157C20.5339 52.0556 20.1132 52.7172 18.9861 52.6534L19.002 52.6933ZM21.8674 52.4382H21.28C21.3911 52.2549 21.8674 51.944 21.8515 52.4063L21.8674 52.4382ZM18.3273 52.2708C18.875 51.673 20.2799 50.828 21.1133 51.3381C20.2264 51.768 19.2829 52.0687 18.3114 52.231L18.3273 52.2708ZM17.5336 51.3381C18.0812 50.6048 19.9147 49.433 20.4862 50.7403C19.5403 51.0717 18.5506 51.2598 17.5495 51.2983L17.5336 51.3381ZM17.0256 50.4932C17.6129 50.0069 19.0972 48.5083 19.5576 49.696C18.7727 50.1025 17.9196 50.3593 17.0415 50.4533L17.0256 50.4932ZM15.6762 48.9627C16.1493 48.708 16.6619 48.5355 17.1923 48.4525C16.7716 48.8192 16.1366 48.9707 15.9302 49.5605C16.5017 50.0309 17.2875 49.3693 17.9543 49.3852C17.5412 49.7242 17.088 50.0107 16.6049 50.2381C16.4859 49.7359 15.6524 49.9511 15.0889 49.8953C15.2714 49.5207 15.835 49.5207 16.0176 49.0982C15.9779 48.9786 15.8509 48.9388 15.6921 48.9228L15.6762 48.9627ZM16.5176 49.3852C16.97 48.8511 18.4702 47.7909 18.8988 48.9627C18.1236 49.1626 17.3319 49.2907 16.5335 49.3453L16.5176 49.3852ZM15.3349 48.6279C15.7794 47.9105 16.843 47.8308 17.2796 47.0974C16.3668 46.9858 15.5969 47.7112 14.4063 47.6075C14.8984 46.9061 15.9937 46.8104 16.5176 46.1647C17.1526 46.5792 17.4066 47.3684 17.9543 47.8626C17.1719 48.346 16.2694 48.5975 15.3508 48.5881L15.3349 48.6279ZM15.0016 49.0504C14.6994 49.1333 14.3847 49.1604 14.0729 49.1301C14.1718 48.9934 14.2974 48.8783 14.4421 48.792C14.5867 48.7056 14.7474 48.6498 14.9143 48.6279C14.8587 48.8272 15.0492 48.8033 15.0175 49.0105L15.0016 49.0504ZM14.1523 47.9424C15.0254 47.9982 15.4143 47.5677 16.1842 47.5199C15.5334 48.2453 14.0649 48.0141 12.8029 48.317C13.1363 47.9184 13.7157 47.767 14.0729 47.3844C14.2237 47.3126 13.9538 47.7909 14.1682 47.9025L14.1523 47.9424ZM13.8189 46.5872C14.5253 46.0213 15.9937 44.4908 16.4382 46.0771C15.6127 46.1966 14.6762 46.6749 13.8348 46.5474L13.8189 46.5872ZM12.6363 43.7893C12.4378 44.1002 12.0251 44.1958 11.7949 44.4668C11.7155 44.7777 11.9378 44.9212 11.7949 45.0647C10.9023 45.4751 9.96822 45.7879 9.00889 45.9974C9.88905 44.8041 11.1944 43.9986 12.6521 43.7494L12.6363 43.7893ZM12.1283 43.5342C12.5807 43.0559 13.3665 42.9124 13.8189 42.4341C13.9166 42.4791 13.9997 42.5508 14.0587 42.6411C14.1177 42.7313 14.1501 42.8364 14.1523 42.9443C13.5332 43.0878 12.8029 43.6378 12.1759 43.4943L12.1283 43.5342ZM14.3269 43.2791C14.4712 43.3587 14.5933 43.4734 14.6821 43.6127C14.7708 43.7519 14.8233 43.9113 14.8349 44.0762C13.8586 44.148 13.3109 44.6422 12.2156 44.5864C12.7976 43.9613 13.5302 43.4974 14.3428 43.2392L14.3269 43.2791ZM12.1759 44.9372C12.7522 44.7142 13.3472 44.5435 13.9538 44.427C13.5014 44.9371 12.5966 44.9929 12.5172 45.8698C13.0331 46.2604 13.7633 45.5988 14.4539 45.6147C14.2237 46.085 13.5331 46.101 13.4458 46.7148C13.8268 47.2409 14.4936 46.6111 15.1365 46.6351C14.0888 47.4322 12.4061 47.5039 10.8265 47.9025C11.3504 47.1611 12.414 46.9539 13.0252 46.3082C11.9219 46.2285 10.9059 46.9539 9.64387 46.9858C10.0963 45.9814 11.779 45.7582 12.1759 44.9372ZM15.0492 44.2596C15.2019 44.3276 15.331 44.4397 15.4201 44.5816C15.5091 44.7236 15.5541 44.889 15.5492 45.0567C14.6603 45.2321 14.065 45.7104 12.9379 45.6466C13.5117 45.0251 14.2245 44.5497 15.0175 44.2596H15.0492ZM13.1045 47.5677C12.9061 47.9583 12.3108 47.9583 12.2632 48.5003C12.9537 48.8351 14.0173 48.1257 14.9619 48.1576C14.4698 48.5721 13.7236 48.7235 13.4458 49.3453C13.9856 49.7678 14.7793 49.0743 15.5492 49.1779C15.2079 49.5048 14.6285 49.6004 14.3745 50.0229C13.1522 49.5287 12.1997 48.7634 10.9138 48.333C11.5814 47.9486 12.3129 47.6893 13.0728 47.5677H13.1045ZM16.2318 50.1982C16.1647 50.324 16.0683 50.4315 15.9508 50.5117C15.8333 50.5919 15.6982 50.6424 15.557 50.6588C15.4159 50.6752 15.273 50.6572 15.1403 50.6062C15.0077 50.5551 14.8892 50.4726 14.7952 50.3657C15.0005 50.2306 15.2343 50.1451 15.4781 50.1161C15.7218 50.087 15.969 50.1152 16.2001 50.1982H16.2318ZM16.4858 50.3657C16.6605 50.3657 16.4859 50.7403 16.6525 50.7881C16.9714 50.8162 17.2919 50.7584 17.5812 50.6208C17.7161 50.8998 16.9462 50.9954 17.0732 51.5534C17.5861 51.6736 18.1247 51.6117 18.5972 51.378C18.6766 51.7447 17.8035 51.8962 17.7479 52.3984C17.1605 51.8962 16.462 51.4896 15.8905 50.9555C16.0175 50.7164 16.343 50.6526 16.4541 50.3657H16.4858ZM26.4472 52.9085C26.3916 53.339 26.352 53.7694 26.2805 54.1839C24.2962 54.447 22.3595 54.7658 20.3672 55.0289C19.9374 55.4146 19.5822 55.8768 19.3195 56.392C17.9701 56.392 16.7001 56.392 15.4381 56.3123C15.5306 55.3184 15.4744 54.3162 15.2715 53.339C18.9067 53.1556 22.6531 52.6774 26.4154 52.9085H26.4472ZM23.4072 43.582C23.2861 43.4855 23.1861 43.3649 23.1137 43.2277C23.0413 43.0905 22.998 42.9397 22.9865 42.7849C23.1005 42.7674 23.2075 42.7187 23.2957 42.6442C23.3839 42.5697 23.4499 42.4722 23.4866 42.3624C23.7961 42.5218 23.2881 43.1197 23.3754 43.582H23.4072ZM21.6372 29.5046C21.5419 29.8872 21.0181 30.214 21.2959 30.6923C21.8118 30.7561 21.8356 30.3256 22.2245 30.2698C21.9976 30.9553 21.6333 31.5869 21.1542 32.1256C20.6751 32.6644 20.0912 33.0989 19.4386 33.4025C19.629 31.8083 20.6133 31.0112 21.1292 29.7597C20.0974 30.222 19.7401 31.3539 18.8511 31.9677C18.6607 31.6249 18.9782 31.0909 19.1845 30.6923C19.5894 29.8952 20.1529 29.098 20.6212 28.4045C21.1292 28.2929 21.3594 27.9023 21.7166 27.6074C21.7166 28.1096 21.0339 28.6676 20.9228 29.393C21.0498 29.8075 21.3117 29.5923 21.6054 29.5046H21.6372ZM23.0738 32.6931C22.5023 33.9925 21.9388 35.2918 20.6212 35.8339C20.9387 34.5983 21.7721 33.8808 22.3119 32.8685C21.2959 33.1236 20.9387 34.4627 20.0259 34.5584C20.4286 33.586 20.9628 32.6741 21.6134 31.8482C22.1214 32.0873 22.542 31.5612 22.796 31.2582C23.058 31.4336 22.3754 32.0554 22.4547 32.6134C22.4944 32.9322 22.8516 32.7728 23.0421 32.725L23.0738 32.6931ZM27.2885 43.8531C26.68 44.7993 26.1491 45.7937 25.7011 46.8264C25.896 44.9897 26.5665 43.2363 27.6457 41.7406C27.741 42.3704 27.0346 43.2711 27.2568 43.9168L27.2885 43.8531ZM27.9632 43.1755C27.9156 44.9132 26.9234 46.4278 26.5266 48.0938C26.6403 46.3928 27.1196 44.7366 27.9314 43.2392L27.9632 43.1755ZM27.8838 42.753C27.6536 42.466 28.0743 42.1073 28.0505 41.7406C28.3204 42.1631 27.8918 42.5139 27.8521 42.8407L27.8838 42.753ZM26.8679 42.2428C27.1113 41.4583 27.3074 40.6597 27.4552 39.8514C26.8044 40.1862 26.598 40.9594 26.1059 41.4457C25.9948 40.4253 26.7568 39.5485 27.1219 38.7275C27.5107 39.2776 27.8231 39.8783 28.0505 40.5131C27.6378 41.1906 27.4235 41.9399 26.8361 42.3066L26.8679 42.2428ZM25.0105 38.5122C24.8835 37.7789 25.7328 36.5991 26.0265 35.7143C26.2047 36.0679 26.3456 36.4393 26.4472 36.8223C25.9173 37.3715 25.4267 37.9576 24.9788 38.576L25.0105 38.5122ZM26.9552 38.1774C26.3837 38.9251 25.7315 39.6068 25.0105 40.2101C25.3634 39.1373 25.8458 38.112 26.4472 37.1571C26.7012 37.444 26.7647 37.8904 26.9234 38.2412L26.9552 38.1774ZM21.1292 37.5796C21.4891 36.083 22.2816 34.7268 23.4072 33.6816C23.8041 33.9765 22.796 34.678 23.1532 35.2041C23.6691 35.2041 23.7485 34.8454 23.9946 34.6142C24.1771 35.0686 23.4151 35.7063 23.7406 36.3121C24.2089 36.3121 24.3279 35.8817 24.5899 35.6346C24.6454 36.1129 24.0422 36.6708 23.9946 37.3245C23.8358 37.3245 23.939 37.0455 23.7406 37.0774C23.1294 37.5557 22.9468 38.4883 22.1531 38.7673C22.0975 37.3484 23.1691 36.623 23.2564 35.6346C22.4071 36.2484 21.9864 37.181 21.0974 37.6433L21.1292 37.5796ZM23.8279 37.4122C23.9512 37.4835 24.0657 37.5691 24.1692 37.6673C24.5872 37.386 24.9328 37.0089 25.1772 36.5672C25.2487 37.4839 24.4311 38.2412 24.1692 39.1101C23.3754 39.1898 23.3754 40.0348 22.7325 40.2101C22.7643 39.0383 23.3755 38.3528 23.7961 37.476L23.8279 37.4122ZM24.5026 37.0774C24.3121 36.3759 25.2963 35.4831 25.6058 34.686C25.9471 34.7338 25.7884 35.2918 26.0265 35.4831C25.4074 35.9311 24.8794 36.4939 24.4708 37.1411L24.5026 37.0774ZM24.0819 35.6664C24.3843 34.8726 24.7506 34.1048 25.1772 33.3707C24.3835 33.4902 24.2723 34.2714 23.6612 34.5584C23.5977 33.9047 24.3755 33.3547 24.4549 32.5257C23.8278 32.7728 23.5977 33.4265 23.0182 33.7134C23.2802 32.6532 24.0104 32.0554 24.4549 31.1706C24.9699 32.1842 25.3668 33.2541 25.6376 34.3591C25.0264 34.7577 24.5184 35.5708 24.0819 35.6664ZM22.9865 32.1033C23.2301 31.4202 23.6361 30.8073 24.1692 30.3176C24.439 30.3176 24.3438 30.7082 24.4232 30.9155C23.7723 31.2104 23.566 31.88 22.9548 32.1351L22.9865 32.1033ZM19.8116 31.3061C19.8989 32.0315 18.8194 32.733 19.2163 33.7692C19.4224 33.7651 19.624 33.7079 19.8018 33.6032C19.9797 33.4986 20.1279 33.3499 20.2323 33.1714C20.3434 33.7453 19.6846 34.2635 19.637 34.957C19.2084 34.1598 18.9067 33.2033 18.4543 32.4141C19.1051 32.3663 19.3195 31.7365 19.7481 31.3699L19.8116 31.3061ZM21.0736 34.2714C20.7958 34.8773 20.3275 35.2759 20.2799 36.1368C20.2799 36.2324 20.4545 36.2005 20.4545 36.3121C21.0419 36.3121 21.153 35.7701 21.5499 35.515C21.5499 36.0889 20.9387 36.8223 20.7561 37.5477C20.2825 36.7826 19.9141 35.9567 19.6608 35.0925C20.3513 35.1483 20.4704 34.5265 21.0101 34.3352L21.0736 34.2714ZM22.4229 36.902C22.0312 37.5679 21.8538 38.3391 21.915 39.1101C22.0745 39.148 22.2417 39.1354 22.3938 39.074C22.5458 39.0127 22.6753 38.9055 22.7643 38.7673C22.8516 39.2057 21.9706 40.2261 22.7643 40.6326C23.304 40.4094 23.5024 39.8355 23.8596 39.4449C24.058 39.3253 23.6929 40.0985 23.5183 40.4652C23.1607 41.0294 22.9329 41.6667 22.8516 42.3305C21.9547 41.2145 21.6292 39.5485 20.9069 38.2571C21.4467 37.9702 21.7007 37.2607 22.3595 36.9658L22.4229 36.902ZM23.2167 42.1631C23.4072 40.8558 24.066 40.0188 24.4867 38.9746C24.8042 39.3094 24.9947 38.8231 25.2804 38.9746C24.7976 40.1997 24.0618 41.3081 23.1214 42.2269L23.2167 42.1631ZM25.6693 41.7406C24.7089 42.0196 24.6613 43.6617 23.8041 43.7733C23.8357 42.7014 24.1272 41.6535 24.6533 40.7203C25.5264 40.7681 25.9154 39.692 26.5107 39.1898C26.5107 39.9869 25.5027 40.8877 25.836 41.9877C26.3758 41.9399 26.4631 41.4377 26.7647 41.1428C26.7647 43.0718 25.4233 44.3313 24.6533 45.7183C24.6057 44.1639 25.3201 43.2153 25.5741 41.8044L25.6693 41.7406ZM24.3994 45.2959C24.0739 45.0886 24.0104 44.6103 23.8041 44.2835C24.3041 44.1002 24.4787 43.5979 24.7327 43.1755C24.9312 43.6936 24.2883 44.6262 24.3041 45.3596L24.3994 45.2959ZM25.9868 43.9407C26.0503 44.969 25.336 45.9415 25.3121 47.1293C24.9867 47.0017 24.947 46.6032 24.8041 46.2843C25.1058 45.5749 25.5265 44.8096 25.9074 44.0045L25.9868 43.9407ZM26.6615 45.4712C26.6615 46.4198 26.09 47.496 26.1535 48.7714C25.7646 48.5482 25.6852 47.9742 25.3598 47.6713C25.9789 47.2409 26.1932 46.3003 26.5821 45.535L26.6615 45.4712ZM26.9155 48.0141C27.0425 48.6837 26.7488 49.5605 27.0028 50.2142C26.5345 49.9511 26.3757 49.3692 26.1535 48.8591C26.5742 49.2178 26.5821 48.325 26.8361 48.0779L26.9155 48.0141ZM28.7728 42.0754C28.8449 39.7926 29.1293 37.5215 29.6221 35.2918C30.5746 29.8234 31.4953 24.2833 32.797 19.1816C33.1701 21.3578 32.1938 23.3666 32.0033 25.4551C31.8922 26.874 32.0033 28.3089 31.7493 29.6959C31.4953 31.0829 31.2096 32.2148 31.0746 33.5142C30.7968 36.1607 30.8286 38.9028 30.654 41.5653C30.5905 42.4421 30.4 43.3907 30.3126 44.2835C30.2253 45.1763 30.1936 46.1807 30.0587 47.0815C29.9238 47.9822 29.4872 48.9149 29.265 49.8794C28.9951 51.2904 29.0903 52.7092 28.6697 54.0325C28.0269 54.1522 27.3677 54.1522 26.725 54.0325C27.0901 50.025 27.748 46.0498 28.6935 42.1392L28.7728 42.0754ZM27.5029 15.451C27.6616 15.1561 27.9394 14.9807 28.0982 14.6539C28.114 14.9042 28.077 15.1551 27.9894 15.39C27.9019 15.6249 27.7658 15.8386 27.5902 16.017C27.5822 15.8177 27.3917 15.7858 27.4235 15.5148L27.5029 15.451ZM28.4315 17.6591C28.9157 17.6591 28.9633 17.1648 29.2252 16.8619C29.3443 17.6591 28.6935 18.4562 28.8046 19.5722C29.0189 19.7874 29.138 19.4766 29.3999 19.4925C29.2332 20.0585 29.0903 20.6484 28.9712 21.2701C28.5029 19.8193 28.2331 18.1772 27.7886 16.6946C27.9714 16.6291 28.1376 16.5236 28.2748 16.3857C28.4121 16.2478 28.5171 16.0811 28.5823 15.8974C28.8442 16.304 27.9473 17.133 28.3522 17.7228L28.4315 17.6591ZM32.3208 20.5368C31.3286 20.8875 31.2493 23.4941 30.4635 24.6101C30.7413 22.7687 31.1302 20.3056 32.4002 19.1816C32.543 19.6121 32.1224 20.0585 32.2415 20.6005L32.3208 20.5368ZM31.7255 22.3224C31.6551 23.0675 31.5143 23.8042 31.3048 24.5225C31.3094 23.797 31.4245 23.0766 31.6462 22.3861L31.7255 22.3224ZM30.7969 15.3634C30.7413 15.5945 31.2017 15.3075 31.1382 15.5387C31.0747 15.7699 30.9794 16.1684 30.6302 16.2162C30.1539 17.1808 29.8364 18.3048 29.1062 19.0142C29.416 17.2445 30.0483 15.5474 30.9715 14.0082C31.0508 14.4068 30.6619 14.9408 30.7175 15.4271L30.7969 15.3634ZM31.4715 16.8062C31.2231 18.471 30.4562 20.0141 29.2808 21.2143C29.5394 19.8394 29.9632 18.501 30.5429 17.2286C30.7036 17.2843 30.8791 17.2785 31.0358 17.2123C31.1925 17.1461 31.3194 17.0242 31.3922 16.8699L31.4715 16.8062ZM31.0509 19.0142C31.6144 18.9345 31.8446 18.4881 31.9795 17.9939C31.7573 19.6599 30.7889 21.318 30.1222 22.8325C29.757 21.6847 30.5984 20.1701 30.9715 19.078L31.0509 19.0142ZM32.3208 18.7591C32.1859 18.0576 32.7336 17.3084 32.8288 16.5511C32.7574 16.5511 32.7415 16.4713 32.6542 16.4713C32.1382 16.83 32.1065 17.675 31.5588 17.9939C31.7516 17.0419 32.0946 16.1269 32.5748 15.2836C32.8764 16.4554 33.1781 18.1294 32.2415 18.8229L32.3208 18.7591ZM31.2255 16.6388C31.1778 15.6902 31.9001 14.7814 32.1541 13.8408C31.6303 13.7451 31.7731 14.3031 31.3604 14.351C31.3604 13.5538 31.8763 13.3386 31.8684 12.5734C31.2731 12.7647 31.1619 13.4502 30.7651 13.8408C30.6698 13.0038 31.3604 12.2465 31.5588 11.3856C30.8603 11.4733 30.9397 12.7806 30.2968 12.6531C30.5926 11.6408 31.0167 10.671 31.5588 9.76743C32.0351 11.274 32.2176 13.0676 32.5748 14.6858C32.1351 15.3834 31.6582 16.0566 31.1461 16.7025L31.2255 16.6388ZM30.3762 13.3306C30.3618 14.0009 30.2139 14.6615 29.9413 15.2735C29.6686 15.8855 29.2767 16.4364 28.7887 16.8938C29.0395 15.6335 29.5535 14.4408 30.2968 13.3944L30.3762 13.3306ZM29.2808 21.7245C29.6856 21.573 29.8126 21.1346 30.0745 20.7919C30.146 21.4854 29.5507 22.6173 29.7332 23.4224C30.2492 23.4224 30.3127 22.9282 30.527 22.5774C30.7651 23.3746 29.6618 24.6739 30.3603 25.3754C30.6636 25.043 30.8673 24.6312 30.9477 24.1876C30.6937 25.4312 30.8444 26.6588 30.6063 27.8306C29.884 25.8776 29.5507 23.526 29.0189 21.3897C29.0109 21.5252 29.003 21.7644 29.2015 21.7883L29.2808 21.7245ZM38.0595 53.61C38.9564 54.2079 38.2183 56.4478 39.0755 57.0855C40.9566 57.0457 42.9092 57.3964 44.9809 57.4203C44.4247 58.5202 43.7768 59.5709 43.0441 60.561C40.7741 60.6248 38.5357 60.2741 36.2895 60.306C35.5513 60.306 34.829 60.5531 34.0908 60.561C33.1297 60.5049 32.1728 60.3904 31.2255 60.2183C26.7885 59.7001 22.4944 59.6045 18.5257 58.5283C18.5257 57.8986 19.1528 57.516 19.5338 56.9979C19.9148 56.4797 20.1687 55.85 20.637 55.555C21.4308 55.0289 23.2088 54.9412 24.6851 54.7977C28.8443 54.439 34.5115 54.2398 37.9801 53.6738L38.0595 53.61ZM41.5201 53.4346C38.0198 52.5259 34.8608 53.8252 30.8842 53.7774C30.9727 53.6231 31.0036 53.4423 30.9715 53.2673C32.9796 52.9165 35.2894 53.052 37.4721 52.6774C37.4546 52.1373 37.3692 51.6017 37.2181 51.0831C40.8772 50.9715 44.7507 51.0113 48.6955 50.6526C47.6875 52.9484 46.3143 54.8296 45.2349 57.1015C44.5299 57.1344 43.8234 57.105 43.1235 57.0138C42.5441 55.842 42.3377 54.3195 41.4408 53.4984L41.5201 53.4346ZM42.5361 56.9979C41.417 56.9979 40.3693 56.4957 39.3612 56.6631C38.8135 56.0732 39.1628 54.5985 38.9405 53.6897C41.544 53.0919 42.2107 54.9811 42.4568 57.0616L42.5361 56.9979ZM34.4321 52.215C33.9797 52.215 33.8844 52.5737 33.3368 52.4701C33.4479 52.1831 33.821 52.1672 33.9242 51.8723C33.2733 51.7607 32.8209 52.5737 31.9795 52.5498C32.3446 51.928 33.2177 51.8165 33.6702 51.2744C32.8764 51.0831 32.4637 51.9839 31.5588 51.9599C32.1065 50.8121 34.1067 50.6208 34.3528 52.3187L34.4321 52.215ZM30.8842 51.4179C31.2255 50.9874 31.7811 50.3896 32.4002 50.7403C31.9509 51.1506 31.3997 51.4315 30.8048 51.5534L30.8842 51.4179ZM34.3448 51.0751H36.6228C36.8334 51.4363 36.9507 51.8446 36.9641 52.2629C36.3665 52.247 35.7693 52.3059 35.1862 52.4382C34.9401 52.0077 34.4877 51.7288 34.2655 51.2106L34.3448 51.0751ZM45.4095 57.3486C45.6714 57.3486 46.0286 57.2928 46.2032 57.4363C45.8792 58.4916 45.4566 59.5138 44.9412 60.4893C44.5473 60.4653 44.1523 60.4653 43.7585 60.4893C44.1615 59.4284 44.6891 58.4195 45.3301 57.4841L45.4095 57.3486ZM45.6555 57.1015C46.3778 54.9572 47.87 52.8687 49.0368 50.9077C49.0907 50.9227 49.1373 50.9568 49.168 51.0037C49.1987 51.0506 49.2113 51.1072 49.2035 51.1628C48.4098 53.2433 47.2271 54.997 46.4175 57.1015H45.6555ZM49.1241 50.2302C45.9603 50.557 42.7781 50.6688 39.5993 50.5649C38.3452 50.5091 37.1308 50.7563 35.8926 50.82C34.2792 50.7754 32.6784 50.5209 31.1302 50.0627C30.7016 50.1664 31.3445 50.8599 30.7889 50.82C30.8292 50.193 30.914 49.5696 31.0429 48.9547C31.1223 48.9547 31.1223 48.9547 31.1302 49.0424C31.1382 49.1301 31.2096 49.0424 31.2175 48.9547C35.9085 51.4179 43.3458 48.6917 49.2829 49.3852C49.2114 49.8555 49.0448 50.0149 49.0448 50.3657L49.1241 50.2302ZM30.8683 51.7527C31.0667 51.9998 31.1858 52.51 31.543 52.3505C31.543 52.6694 30.8842 52.5099 30.7492 52.4382C30.7334 52.3266 30.6778 52.0157 30.8048 51.8882L30.8683 51.7527ZM25.8837 52.3505C26.0662 52.2469 26.5107 52.1513 26.6774 52.2629C26.4155 52.5179 26.0186 52.6534 25.8201 52.486L25.8837 52.3505ZM15.5016 56.5036C16.8033 56.4399 17.8828 56.6073 19.129 56.5913C18.7591 57.1613 18.3365 57.6951 17.8669 58.1856C17.0565 58.1594 16.2543 58.0144 15.4857 57.7551C15.4054 57.3888 15.3893 57.0111 15.4381 56.6391L15.5016 56.5036ZM61.1809 59.6922C55.9512 60.4162 50.6703 60.6988 45.3936 60.5372C45.6481 59.4153 46.0738 58.3398 46.6556 57.3486C52.0371 57.6196 57.7679 58.0022 63.0383 57.5239C63.1282 57.703 63.2594 57.8578 63.4209 57.9757C63.5824 58.0935 63.7696 58.171 63.9669 58.2015C63.1018 58.9748 61.9508 59.2617 61.1174 59.8596L61.1809 59.6922ZM58.2124 55.0289C58.2124 54.7579 58.3314 54.6941 58.3791 54.5188C58.4902 54.5188 58.514 54.6702 58.6331 54.6941C58.6489 54.9253 58.5219 55.0528 58.2124 55.0289ZM58.887 55.3637C58.8411 55.4304 58.777 55.4824 58.7024 55.5135C58.6278 55.5446 58.5459 55.5535 58.4664 55.5391C58.4822 55.284 58.7997 55.2362 58.9188 55.3637H58.887ZM58.887 55.9616C58.6498 56.1161 58.3758 56.2042 58.0933 56.2167C58.1951 56.1032 58.3256 56.0195 58.471 55.9746C58.6163 55.9297 58.7711 55.9252 58.9188 55.9616H58.887ZM59.4744 56.2167C58.9394 56.5517 58.3327 56.7539 57.7044 56.8066C58.2312 56.4303 58.8598 56.2245 59.5062 56.2167H59.4744ZM57.9584 57.0616C58.006 57.4204 57.9584 57.6595 57.5377 57.5718V57.1892C57.8076 57.1892 57.7837 57.0298 57.9901 57.0616H57.9584ZM60.9984 52.8209C60.6809 52.8209 60.7761 52.4781 60.411 52.5737C60.5221 52.2948 60.8793 52.2549 61.2048 52.1433C61.1889 52.4063 61.0063 52.5179 61.0301 52.8209H60.9984ZM60.9984 54.6064C60.7987 54.4403 60.6532 54.2176 60.5811 53.9675C60.5089 53.7173 60.5132 53.4511 60.5936 53.2035C60.758 53.3949 60.8815 53.6182 60.9566 53.8595C61.0317 54.1008 61.0567 54.355 61.0301 54.6064H60.9984ZM62.5144 54.6064C63.2684 55.0847 63.2208 56.3522 63.0224 57.4044C62.1175 57.1971 61.3873 57.6914 60.8317 57.4044C59.649 56.7826 60.9508 54.184 62.5462 54.6064H62.5144ZM61.927 53.4984C61.6968 53.3948 61.7604 53.0441 61.8397 52.8209C62.062 52.8846 61.9111 53.2991 61.9588 53.4984H61.927ZM62.435 52.3984C62.7525 52.4621 62.4906 52.8129 62.435 52.9882C62.2842 52.9404 62.3874 52.4701 62.4668 52.4063L62.435 52.3984ZM59.9824 53.6738C60.2558 54.0398 60.4059 54.4837 60.411 54.9412C60.0935 54.718 60.0697 54.184 60.0142 53.6738H59.9824ZM60.157 53.1636C59.9507 53.1158 59.7204 53.0919 59.7363 52.8209C59.8951 52.8209 59.9427 52.6375 60.157 52.6534V53.1636ZM59.9824 56.2167C59.8712 56.2645 59.9824 56.5435 59.8157 56.5515C59.649 56.5594 59.6411 56.2804 59.5617 56.129C59.6389 56.1097 59.7194 56.1075 59.7976 56.1227C59.8757 56.1378 59.9496 56.1699 60.0142 56.2167H59.9824ZM63.4431 53.2513C63.6891 53.3868 63.4431 53.7057 63.3637 53.8412C63.2208 53.7694 63.4431 53.3948 63.4748 53.2513H63.4431ZM64.1257 58.7595C63.8541 59.1985 63.4818 59.5659 63.0399 59.8308C62.598 60.0956 62.0994 60.2504 61.5857 60.2821C62.1017 59.4132 63.3557 59.3175 64.1574 58.7834L64.1257 58.7595ZM62.181 63.2554C62.047 62.8442 61.9879 62.4122 62.0064 61.98C62.451 61.7987 62.8536 61.5273 63.1891 61.1828C63.3875 61.7249 62.4985 62.6256 62.181 63.2554ZM64.1257 52.9882C63.9828 52.8208 64.0146 52.4781 63.7844 52.3984C63.5542 52.3186 63.5383 52.6614 63.2764 52.6534C63.2764 52.1353 62.6493 52.2708 62.689 51.7208C63.5463 51.4418 64.5622 52.3425 64.1574 52.9882H64.1257ZM36.4323 3.64541C38.0198 5.28752 38.8135 7.50356 40.147 9.32901C41.4805 11.1545 42.3695 13.2589 43.5204 15.2597C44.1344 16.2306 44.6654 17.2519 45.1078 18.3127C45.5364 19.4765 45.7746 20.6324 46.2905 21.7883C47.2588 23.9326 48.3383 25.9972 49.3305 28.0618C51.3307 32.2467 53.7437 36.1128 55.9979 40.0188C58.2521 43.9248 60.7603 47.7271 63.1415 51.2983C59.4903 51.6969 57.2123 53.9289 57.0694 57.5718C53.4738 57.4044 49.9655 57.4921 46.6001 57.237C47.4174 54.9759 48.4822 52.813 49.775 50.7881C51.2196 50.7881 53.0214 50.541 54.7596 50.6208C56.4979 50.7005 58.2362 51.1867 59.395 50.3657C59.2998 49.4729 57.8949 49.5685 57.2917 49.1779C56.4979 48.6199 55.4819 46.4438 54.839 45.1922C52.6086 40.8239 51.1164 36.4795 48.9336 32.1351C47.8621 30.0147 46.9414 27.8625 45.973 25.6066C45.2666 23.9565 44.3856 22.2347 43.5918 20.3455C43.1632 19.2693 42.7266 18.1852 42.3218 17.1569C41.5962 14.9649 40.7509 12.8147 39.7898 10.716C39.4009 9.96671 38.885 9.34492 38.5199 8.59561C38.1547 7.8463 37.869 7.04916 37.5118 6.30783C36.9421 5.47829 36.513 4.55983 36.2419 3.58961C36.4482 3.54178 36.4561 3.58961 36.4641 3.64541H36.4323ZM50.275 49.5207C53.45 49.6004 56.4503 49.3134 58.887 50.1106C57.6647 50.9077 55.8153 50.286 54.331 50.278C52.9565 50.408 51.5762 50.4665 50.1957 50.4533C50.2116 50.1026 50.3703 49.9193 50.275 49.5207ZM41.2424 15.0923C42.0361 17.0453 42.8298 18.9983 43.6236 20.9433C44.4173 22.8883 45.338 24.7137 46.1556 26.6269C47.743 30.4212 49.8147 34.0323 51.3863 37.7868C52.18 39.7398 52.8547 41.6928 53.8389 43.5501C54.8231 45.4075 55.6883 47.1293 56.4582 48.9786C53.7357 49.441 50.9021 49.0663 47.9256 48.9786C45.9571 48.9149 43.9569 49.4091 42.0202 49.4888C41.4487 49.4888 40.8296 49.3453 40.2422 49.4011C38.0992 49.5844 35.4799 50.1345 33.3209 49.5685C32.5142 49.2384 31.7494 48.8129 31.0429 48.3011C31.2096 47.3046 31.6144 46.2445 31.7176 45.3277C32.4319 38.7593 32.17 32.1112 33.305 25.5747C33.8512 22.2913 34.1906 18.9766 34.321 15.6503C34.5115 11.569 35.5592 8.08546 35.837 3.78091C35.9085 3.78091 35.9164 3.7809 35.9243 3.86859C37.918 7.50494 39.7042 11.2522 41.2741 15.0923H41.2424ZM35.2497 3.22291C35.3087 2.4135 35.4497 1.61223 35.6703 0.831492C35.6703 0.648151 35.7418 0.56046 35.9243 0.576402C35.8817 1.516 35.7702 2.45118 35.591 3.37436C35.1227 6.8738 34.4401 10.1819 34.1464 13.7372C33.948 16.2322 33.9083 18.7751 33.6463 21.3658C33.432 23.4144 32.9796 25.4711 32.6304 27.5596C32.3249 29.7511 32.1289 31.9566 32.043 34.1678C31.916 36.0331 31.8763 37.9064 31.789 39.7478C31.7017 41.5892 31.535 43.3748 31.3604 45.1763C31.2334 46.5234 30.7333 47.8866 30.519 49.3294C30.3047 50.7722 30.4635 52.3426 30.1857 53.8253C29.7571 53.8253 29.5903 54.0245 29.1697 53.9926C29.257 50.9396 30.1539 48.7236 30.4317 45.8539C30.5746 44.419 30.8127 42.9921 30.9397 41.5334C31.162 39.0383 31.1778 36.5274 31.3604 33.8968C31.5033 31.9598 32.1541 30.1024 32.2891 28.1335C32.3446 27.44 32.2415 26.7226 32.2891 26.0131C32.4161 24.2594 33.0828 22.3224 33.2257 20.4331C33.3447 18.8389 33.3765 17.1967 33.559 15.5148C34.0273 11.4812 34.5671 7.03323 35.2814 3.22291H35.2497ZM31.535 7.2086C31.7414 6.05275 34.2893 4.46647 34.6544 3.30265C34.7576 3.30265 34.8052 3.30264 34.829 3.39032C34.1543 6.28393 34.0353 9.84712 33.559 12.8842C33.5197 13.429 33.345 13.9552 33.051 14.4148C33.051 14.8532 32.9161 15.0445 33.051 15.4271C32.5113 13.5538 32.3208 11.9914 31.8684 9.84712C31.635 8.98809 31.5333 8.09838 31.5668 7.2086H31.535ZM30.6857 10.5167C30.5349 10.0464 31.0826 9.55218 31.281 9.15362C31.4239 9.23333 31.4636 9.42465 31.4477 9.6638C30.9636 9.67974 30.9476 10.2059 30.7175 10.5167H30.6857ZM31.027 8.22098C31.2493 8.22098 31.2413 8.40431 31.281 8.56374C30.8683 9.20145 30.3762 9.75146 29.9317 10.3413C29.9634 9.60798 30.7492 8.93043 31.0588 8.22098H31.027ZM29.3364 10.2616C29.5586 10.3972 29.1538 10.8994 29.4237 11.1066C29.6935 11.3139 29.9555 10.5327 30.011 10.9392C29.8255 11.2472 29.7115 11.5932 29.6777 11.9516C29.7491 12.1987 29.9476 11.9037 30.0984 11.9516C29.6698 13.5459 29.1379 15.1401 27.987 16.0249C28.3363 14.4865 29.2015 13.4581 29.7571 12.1269C28.6776 12.7886 28.5268 14.3908 27.3124 14.9249C27.5895 13.5868 28.2327 12.3529 29.1697 11.3617C27.987 11.4414 27.8759 13.3386 27.0584 14.0719C27.0725 13.9992 27.072 13.9244 27.057 13.8519C27.042 13.7793 27.0128 13.7106 26.9711 13.6495C27.7251 12.4538 28.5664 11.3697 29.3681 10.2616H29.3364ZM26.5504 14.327C27.6537 17.3482 28.5188 21.7643 29.3364 25.4391C29.6062 26.6588 30.2253 27.9581 30.265 28.9944C30.1712 29.9419 30.0014 30.8803 29.7571 31.8003C29.3681 34.5584 28.8601 37.4441 28.4077 40.3616C26.1694 36.2563 24.955 31.2981 23.3437 26.5392C22.7 24.9804 22.2185 23.3589 21.907 21.7006C23.439 19.1975 25.0661 16.8141 26.5821 14.327H26.5504ZM24.1057 29.8473C23.554 30.523 22.86 31.0674 22.0737 31.4416C22.3546 30.6926 22.7251 29.9805 23.177 29.3212C22.6531 29.2335 22.2801 29.9908 21.7403 30.1662C21.7959 29.2335 22.931 28.6516 23.2564 27.711C22.415 27.99 22.161 28.8669 21.3197 29.1538C21.5657 28.0458 22.4626 27.5596 22.8357 26.611C22.1769 26.6508 21.7007 27.6074 20.899 27.7907C21.2324 26.8341 21.9467 26.2522 22.415 25.3993C21.8118 25.3993 21.3356 26.1964 20.7244 26.4993C20.6688 25.7022 21.7324 25.2478 21.8197 24.2913C21.1848 24.5862 20.8831 25.2159 20.2323 25.479C20.6744 24.7477 21.1539 24.04 21.6689 23.3586C22.8675 25.1841 23.3834 27.6393 24.1374 29.8473H24.1057ZM21.4863 22.4658C21.4863 23.9485 19.8989 24.6181 19.7163 26.1964C20.1767 26.1964 20.2719 25.8616 20.5577 25.6863C20.7164 26.0689 19.9148 26.603 20.137 27.0494C20.4863 27.3363 20.8673 26.5631 21.0657 26.7066C20.3196 28.0219 19.8037 29.5683 18.1924 30.0147C18.5496 28.4762 19.5973 27.6233 20.137 26.2841C19.4628 26.9276 18.8924 27.6725 18.4464 28.4922C18.22 28.8064 18.0584 29.1629 17.9711 29.5407C17.8839 29.9186 17.8728 30.3101 17.9384 30.6923C18.5654 30.6126 18.7877 30.1343 19.2083 29.8473C19.1131 30.485 18.4146 31.2344 18.2797 32.1351C17.6685 31.5931 17.5336 30.5408 17.1764 29.7437C18.7638 27.44 19.9942 24.8094 21.5181 22.4658H21.4863ZM16.7239 30.5249C16.7954 30.5249 16.8034 30.5249 16.8113 30.6126C18.9941 33.8011 20.0815 37.6912 21.7086 41.2942C22.9072 43.9487 24.2644 46.4597 25.59 49.0903C26.1408 49.9014 26.4892 50.8337 26.6059 51.8085C25.4947 52.2708 23.6532 52.0157 22.3833 52.3187C18.6051 48.1975 14.9381 43.9646 12.0013 39.0064C13.7078 36.2483 15.1682 33.275 16.7875 30.5249H16.7239ZM11.6361 39.6521C11.9933 39.6521 12.0648 39.9551 12.3187 40.0746C11.9933 40.8718 11.152 41.2225 10.7313 41.9399C11.2631 42.5378 11.6758 41.6768 12.4219 41.7725C11.1916 42.5138 10.1995 43.4943 9.04857 44.3154C9.55656 42.7928 10.9218 41.3341 11.6361 39.6521ZM12.4299 42.7849C11.5626 43.8506 10.3266 44.5482 8.96922 44.7379C9.9275 43.8155 11.1097 43.1613 12.3981 42.8407L12.4299 42.7849ZM9.38987 44.993C9.15175 45.4234 8.64377 45.5988 8.46122 46.093C9.17558 46.5554 9.97726 45.7104 10.6599 45.5828C10.6599 46.1408 9.41371 46.2524 9.22322 46.938C9.83439 47.7351 11.3028 46.4198 12.0965 46.6031C11.4709 46.977 10.8763 47.4009 10.3185 47.8706C9.41333 47.5451 8.56032 47.0886 7.78651 46.5155C7.82782 46.1194 8.00906 45.7513 8.29737 45.4778C8.58568 45.2043 8.96201 45.0436 9.35814 45.0248L9.38987 44.993ZM10.6599 48.6359C13.0411 49.6881 16.0413 51.107 17.3272 52.7889C16.7636 52.6853 15.9143 52.9245 15.1365 52.8767C14.8904 50.9476 13.1442 50.4852 11.3345 50.1664C11.279 49.712 10.89 49.5924 10.8265 49.146C9.48251 48.9759 8.155 48.6933 6.85786 48.3011C7.22298 46.0292 9.4613 48.1496 10.6281 48.6678L10.6599 48.6359ZM15.0492 57.7073C13.8189 57.3008 12.4696 57.0218 11.2472 56.6073C12.2711 56.1529 13.7792 56.6551 15.0492 56.5195C15.1047 56.8225 14.9619 57.2689 15.0175 57.7392L15.0492 57.7073ZM12.1759 63.2873C11.3821 64.0286 10.6757 64.8337 9.31052 64.9852C9.44545 63.9091 10.517 63.7655 10.898 62.9525C9.89788 63.1438 9.31049 64.1402 8.19133 63.9648C8.95667 62.6787 10.0536 61.6239 11.3663 60.9118C10.8711 61.4198 10.4442 61.9906 10.0963 62.6097C10.0963 62.7213 10.2471 62.7452 10.263 62.8648C11.0567 62.6416 11.4774 61.9959 12.2076 61.6771C12.0647 62.2191 11.6361 62.4742 11.533 63.0402C11.5885 63.4706 11.8266 63.4069 12.1759 63.3351V63.2873ZM10.9138 53.7933C10.9538 54.557 10.9246 55.3228 10.8265 56.0811C8.42695 55.6862 5.99283 55.5446 3.5639 55.6587C5.08787 54.184 8.38977 54.4231 10.8821 53.8412L10.9138 53.7933ZM3.78612 54.7977C3.88702 53.9268 4.17694 53.0887 4.63542 52.3425C5.0561 51.5454 5.61172 50.7005 5.98477 49.8794C7.66874 49.9514 9.33872 50.2189 10.9614 50.6766C11.0925 51.5752 11.0925 52.4882 10.9614 53.3868C8.83424 54.1839 5.74664 53.9368 3.78612 54.7977ZM9.44544 56.6631C9.99311 56.7747 10.7392 56.9261 10.7075 57.4602C8.81047 57.3327 6.81818 56.5594 4.63542 56.4398C5.77046 56.0572 7.95322 56.3362 9.44544 56.6391V56.6631ZM5.64348 58.616C5.5398 58.8424 5.38798 59.0432 5.19874 59.2043C5.00951 59.3655 4.78744 59.483 4.54812 59.5487C4.54812 59.1183 4.81798 58.911 4.88942 58.5283C5.14013 58.4568 5.40821 58.4795 5.64348 58.5921V58.616ZM7.08013 58.7834C6.60291 59.4785 5.87856 59.9635 5.05612 60.1386C5.48474 59.453 5.82603 58.3211 7.08013 58.7834ZM7.42143 58.8711C7.85357 58.8636 8.27375 59.0137 8.60408 59.2936C7.92718 60.0437 7.04279 60.5738 6.06413 60.8161C6.30225 59.9313 6.95312 59.4849 7.41348 58.8472L7.42143 58.8711ZM9.86614 59.461C9.68791 59.8202 9.42598 60.131 9.10264 60.367C8.77929 60.6029 8.40408 60.7569 8.00878 60.8161C8.27865 59.9951 8.78666 59.1501 9.86614 59.4371V59.461ZM11.0488 59.7161C10.4882 60.4533 9.72332 61.0079 8.85014 61.3104C9.27875 60.5052 10.0249 59.3574 11.0488 59.6922V59.7161ZM11.5567 59.8038C11.7847 59.7791 12.0154 59.8063 12.2314 59.8835C11.4247 60.702 10.5179 61.4145 9.53274 62.0039C9.5883 61.5734 10.9138 59.9074 11.5567 59.7799V59.8038ZM10.5408 62.514C10.9535 61.398 11.9854 60.9198 12.5648 59.9712C12.914 60.019 13.2316 60.0908 13.5808 60.1386C12.8026 61.1888 11.7505 62.0026 10.5408 62.4902V62.514ZM11.1281 57.7312C11.1281 57.4921 11.1281 57.1812 11.2154 57.0537C11.7314 57.237 12.6997 57.3645 13.4141 57.5638C14.1285 57.7631 15.0412 57.9066 14.9301 58.6638C13.6423 58.4478 12.3717 58.1388 11.1281 57.7392V57.7312ZM15.0175 56.2964C13.7872 56.2964 12.4537 55.9855 11.3028 56.2087C11.1917 55.3914 11.1917 54.5628 11.3028 53.7455C12.287 53.4107 13.7237 53.5223 14.8508 53.3231C15.1251 54.2922 15.182 55.3104 15.0175 56.3044V56.2964ZM11.3028 53.2433C11.4132 52.3708 11.4688 51.4923 11.4694 50.6128C12.9061 51.0353 14.5333 51.2585 14.6444 53.0042C13.5411 53.0122 12.1759 53.2035 11.3028 53.2513V53.2433ZM6.5404 48.7474C7.8818 49.2178 10.255 49.0822 10.6757 50.1903C9.23743 49.8015 7.76917 49.5348 6.2864 49.3931C6.26258 49.0663 6.56419 49.0583 6.57213 48.7554L6.5404 48.7474ZM6.1197 48.6598C6.1197 48.9627 5.96093 49.0663 5.95299 49.3374C5.26303 49.326 4.57844 49.2132 3.92104 49.0025C4.60604 48.6428 5.39162 48.5249 6.15143 48.6678L6.1197 48.6598ZM3.50039 49.4569C4.34174 49.4091 4.73861 49.7917 5.53234 49.7917C4.96085 51.4896 3.94486 52.7252 3.33369 54.3752C3.08031 52.7305 3.14771 51.052 3.53212 49.433L3.50039 49.4569ZM3.16703 58.2733C3.38134 58.0022 4.24649 58.3849 4.68304 58.4407C4.42896 58.8585 4.25654 59.3211 4.17504 59.8038C3.64324 59.4929 3.64326 58.6479 3.19877 58.2494L3.16703 58.2733ZM4.17504 59.9712C4.37752 59.9873 4.58101 59.9573 4.77034 59.8835C4.77034 60.2581 4.65128 60.306 4.77034 60.561C5.4212 60.561 5.61964 60.1146 6.1197 59.9712C5.98476 60.3458 5.59585 60.7205 5.78634 61.1589C6.88169 61.1589 7.10394 60.2821 7.97705 60.0509C7.88974 60.3857 7.62781 60.5531 7.63575 60.9835C7.63575 61.0553 7.72305 61.0712 7.72305 61.1589C8.21516 61.1589 8.32626 60.864 8.739 60.8161C8.62788 61.0473 8.50883 61.2705 8.3977 61.4937C8.69139 62.0358 9.06445 61.3821 9.501 61.3263C9.38194 61.7408 8.89775 61.7966 8.993 62.4264C8.4374 62.8008 7.80049 63.0359 7.1357 63.1119C7.24682 62.3706 7.88179 62.1633 8.06435 61.5176C7.51667 61.3662 7.08012 62.0597 6.47688 62.1155C6.3737 61.6452 6.93724 61.8444 6.81024 61.3183C6.44512 61.1828 6.01651 61.6372 5.96888 62.1155C5.20574 61.565 4.60731 60.8152 4.23855 59.9473L4.17504 59.9712ZM6.20699 62.6017C6.53626 62.3629 6.9081 62.1897 7.30235 62.0916C7.15948 62.4822 6.87372 62.7293 6.79435 63.1916C6.48479 63.1119 6.54833 62.6575 6.23877 62.5778L6.20699 62.6017ZM7.04835 63.4467C7.73096 63.4467 7.96908 62.9605 8.63581 62.9365C8.41169 63.0749 8.22032 63.2607 8.07501 63.481C7.9297 63.7012 7.83395 63.9507 7.79446 64.2119C8.30245 64.6982 8.96919 64.0127 9.48511 63.9569C9.26287 64.3235 8.88981 64.5467 8.88981 65.1446C8.88981 65.2562 9.04064 65.2721 9.05652 65.3997C9.56509 65.33 10.054 65.1564 10.4932 64.8895C10.3662 65.304 9.69945 65.7584 10.1598 66.2446C11.1599 66.0613 11.66 65.3758 12.541 65.0569C12.422 65.4156 12.1045 65.575 12.041 65.9895C12.6045 66.7867 13.6999 65.575 14.4222 65.3997C14.5968 65.854 13.6284 65.8859 13.6284 66.4997C14.4222 66.7548 15.5334 65.8301 16.2477 65.3997C15.454 65.6229 14.9936 66.1171 14.1285 66.2446C14.5333 65.5432 15.3905 65.304 15.8191 64.6504C14.7476 64.762 13.6443 66.0215 12.3584 65.9178C12.5648 64.9294 14.3031 64.6982 13.9459 63.7177C14.2902 63.6295 14.5915 63.4202 14.7952 63.1278C14.4063 63.08 14.0015 63.7576 13.3585 63.7177C13.676 62.2908 15.0254 61.8843 15.5492 60.6647C14.7904 61.1553 14.0591 61.6876 13.3585 62.2589C13.6363 62.4024 13.8824 61.7727 14.2872 61.7488C13.8983 62.4662 13.2236 62.8807 13.0172 63.7815C13.0733 63.8547 13.104 63.9443 13.1045 64.0366H13.4379C13.5173 64.0366 13.5252 64.0366 13.5252 63.9569C13.93 63.9569 13.422 63.9569 13.5252 64.2119C12.4458 64.7699 11.6282 65.583 10.3503 65.9019C10.6837 64.7381 11.7711 64.3076 12.4616 63.5105C12.4694 63.4549 12.4568 63.3983 12.4261 63.3514C12.3955 63.3044 12.3488 63.2703 12.295 63.2554C12.572 62.922 12.9153 62.6505 13.303 62.4582C12.8982 62.3546 12.5092 63.0083 11.8743 62.9684C12.1759 61.693 13.2871 61.2227 13.811 60.1705C15.0571 60.2502 15.8747 60.7524 17.1843 60.7603C16.6128 61.6531 15.5969 62.1235 14.9063 62.8807C15.2714 62.8807 15.7477 62.3148 16.089 62.0358C16.2001 62.8329 14.8031 63.2235 15.1603 64.2359C16.1922 64.1402 16.6049 63.4387 17.2716 62.9684C17.2716 63.4068 16.6208 63.8931 16.597 64.5627C16.597 64.7062 16.7478 64.754 16.9383 64.7301C16.8827 65.0171 16.5573 65.033 16.4303 65.2402C16.7954 65.3997 15.7239 65.9657 15.6365 66.5157C16.2795 66.9302 17.1605 66.1968 17.6605 65.9178C17.1922 65.8222 16.716 66.428 15.9778 66.3403C16.5864 65.6498 17.2648 65.0247 18.0019 64.475C17.987 64.4209 17.953 64.3741 17.9063 64.3433C17.8595 64.3125 17.8033 64.2998 17.7479 64.3076C18.0416 63.9808 18.486 63.8054 18.7638 63.4626C18.3035 63.4626 17.6209 64.3953 16.9859 64.2598C17.2955 62.8728 18.5257 62.4184 19.0972 61.2944C19.7957 61.2147 20.137 61.4937 20.7879 61.4618C20.2218 62.1646 19.5683 62.7915 18.8433 63.3271C19.2322 63.7098 18.367 64.1243 18.3353 64.6025C19.129 64.9613 19.7957 63.7018 20.5339 63.4148C20.0735 63.4626 19.4941 64.1243 18.8433 64.2598C19.5399 63.2748 20.338 62.3663 21.2244 61.5495C21.6253 61.5378 22.0251 61.5944 22.4071 61.7169C22.0128 62.206 21.5241 62.6099 20.9704 62.9046C21.026 62.9923 21.1688 62.9923 21.1371 63.1597C20.6529 63.6858 19.891 63.9569 19.7878 64.8576C19.3512 65.0888 18.875 65.296 18.4384 65.5352C18.5337 65.7105 18.8115 65.3518 19.1131 65.4475C18.748 66.0135 17.4463 66.4439 17.8511 67.2331C16.1235 67.2797 14.3959 67.1354 12.6997 66.8026C11.1916 66.5555 9.5248 66.5874 8.38976 65.87C8.06433 64.9852 7.4135 64.3634 7.08013 63.4228L7.04835 63.4467ZM16.335 70.318C16.1525 70.2303 17.3907 70.0709 17.351 70.3977C16.9383 70.4376 16.7875 70.2303 16.3668 70.2941L16.335 70.318ZM18.4464 69.3854C19.3195 69.3854 18.9147 68.9708 18.4464 69.3854ZM19.5417 68.5324C19.883 68.4766 20.0259 68.6122 20.3355 68.6201C20.272 68.7078 19.51 68.8114 19.5735 68.5085L19.5417 68.5324ZM22.3277 69.6325C22.5579 69.4412 23.1215 69.6325 23.5104 69.5528C23.2882 69.7202 22.7325 69.5608 22.3595 69.6086L22.3277 69.6325ZM22.415 68.8353C23.2013 68.6808 24.01 68.6808 24.7962 68.8353C24.018 68.955 23.2266 68.9604 22.4468 68.8513L22.415 68.8353ZM24.8756 69.8637C24.947 69.5687 25.7249 69.6564 25.7249 69.9513C25.3677 70.0071 25.2645 69.8079 24.8756 69.8637ZM28.9316 69.5288C28.9316 69.0665 29.4713 69.2259 29.8603 69.1861C29.765 69.6883 29.2649 69.3375 28.9475 69.5288H28.9316ZM29.4396 69.9513C29.8364 69.7521 30.5905 69.9514 31.1302 69.8637C30.7889 70.047 29.7333 70.2383 29.4555 69.9434L29.4396 69.9513ZM33.7416 70.039C34.3062 69.9945 34.8742 70.0212 35.4322 70.1187C35.0036 70.1267 33.9083 70.5412 33.7575 70.039H33.7416ZM35.329 69.9513C36.1228 69.8637 37.4324 70.047 38.4564 70.039C37.4801 70.2303 36.1784 70.3898 35.3608 69.9434L35.329 69.9513ZM38.3691 69.8637C38.4405 69.776 38.9802 69.505 38.9644 69.8637H38.3691ZM38.2024 71.1391C38.2897 70.9478 38.7342 71.1391 38.9961 71.0514C38.9405 71.3543 38.4246 71.1949 38.2341 71.1391H38.2024ZM38.7104 70.3419C39.5129 70.1675 40.3364 70.1111 41.1551 70.1745C40.3683 70.3807 39.5518 70.4481 38.7421 70.3738L38.7104 70.3419ZM47.9097 70.2622C48.259 69.9593 49.0368 70.0868 49.4972 69.9194C49.6639 70.3818 48.513 70.2622 47.9415 70.2941L47.9097 70.2622ZM48.759 69.5767C48.8781 69.3056 49.4416 69.473 49.6877 69.3296C49.5369 69.5767 49.1321 69.5608 48.7908 69.6086L48.759 69.5767ZM48.251 70.7645C48.8237 70.5852 49.4213 70.4991 50.021 70.5094C49.7432 70.9079 48.9257 70.7405 48.2828 70.7963L48.251 70.7645ZM50.6322 70.2622C50.8545 69.9753 51.4259 70.0311 51.8942 70.0072C51.4959 70.1664 51.0756 70.2632 50.6481 70.2941L50.6322 70.2622ZM54.0929 69.9194C54.5533 69.76 55.1724 69.3056 55.7835 69.5767C55.4264 70.0948 54.712 69.8158 54.1088 69.9434L54.0929 69.9194ZM55.6804 68.9868C56.6725 68.9868 56.2995 68.5324 55.6804 68.9868ZM57.7917 69.0745C57.5456 69.0745 57.498 68.9151 57.371 68.8194C57.5933 68.5643 57.879 68.7477 58.1251 68.644C58.1473 68.7505 58.1286 68.8615 58.0726 68.9547C58.0166 69.0479 57.9276 69.1163 57.8234 69.1462L57.7917 69.0745ZM59.141 70.0869C59.4585 69.6484 60.2126 70.1586 60.665 69.9194C60.4825 70.3021 59.649 70.039 59.1728 70.1187L59.141 70.0869ZM60.411 69.2897C60.6116 69.1606 60.8479 69.0992 61.0857 69.1144C61.165 69.5209 60.6491 69.2897 60.4428 69.3615L60.411 69.2897ZM60.411 68.1897C60.7512 68.0187 61.126 67.9286 61.5064 67.9266C61.427 68.3491 60.8793 68.2375 60.4428 68.2614L60.411 68.1897ZM59.9824 67.8469C57.4504 68.4766 54.1088 68.5882 50.8703 68.8593C48.4891 69.0665 45.9571 69.2658 43.6077 69.2897C40.1787 69.2897 36.4006 69.2897 32.797 68.9469C31.0746 68.7795 29.2808 68.8194 27.5664 68.6042C23.9628 68.1658 20.2799 68.1817 16.335 68.0143C13.6998 67.9027 11.0408 67.807 9.19144 66.9143C9.12051 66.8151 9.08935 66.6927 9.10414 66.5715C10.6281 66.7548 13.4697 67.0896 15.454 67.3686C17.7399 67.6556 20.2164 67.5759 22.296 67.7034C26.9472 67.9984 31.6699 67.9425 35.8847 68.1339C40.5201 68.3411 44.9888 68.4846 49.14 68.3889C53.1087 68.2853 57.6964 67.4324 61.419 66.7947C61.6254 66.7947 61.4191 67.3048 61.6016 67.3048C61.2365 67.7831 60.4983 67.7991 60.0142 67.9187L59.9824 67.8469ZM61.5064 66.4041C60.4565 66.7053 59.3798 66.9028 58.2917 66.9939C59.1331 66.2446 60.3793 66.2765 61.0857 65.304C61.0857 65.1845 60.8714 65.2323 60.7444 65.2163C60.9376 64.8027 61.2069 64.4295 61.5381 64.1163C61.8635 64.7859 61.6016 65.7026 61.5381 66.4758L61.5064 66.4041ZM61.673 63.6061C60.9269 63.7655 60.8793 64.5786 60.2364 64.8736C60.6224 64.1279 61.074 63.4182 61.5857 62.7532C60.5301 62.9445 59.8792 64.2598 58.7997 64.7062C59.5935 63.7177 60.1014 62.5061 61.5857 62.251C61.7469 62.7084 61.7879 63.1999 61.7048 63.6779L61.673 63.6061ZM64.5781 65.6787C63.7773 66.2518 62.9481 66.7839 62.0937 67.273C61.8239 66.5237 62.0937 65.5671 62.689 65.4077C62.562 65.6468 64.3638 64.4352 64.4987 64.4352C64.5622 65.025 64.7845 65.1047 64.6098 65.7504L64.5781 65.6787ZM65.3004 56.7348C65.3718 56.5275 65.4115 56.2804 65.729 56.3123C65.6496 56.5594 65.6258 56.8145 65.356 56.8066L65.3004 56.7348ZM66.4037 56.9899C66.4513 56.8145 66.5783 56.7188 66.6577 56.5674C66.9434 56.7667 66.6497 57.1015 66.4354 57.0616L66.4037 56.9899ZM72.8171 52.1592H73.1584C73.2298 52.4302 73.0234 52.4223 72.9837 52.5817C72.8329 52.6375 72.8409 52.4064 72.8488 52.231L72.8171 52.1592ZM72.5631 53.5144C72.9837 53.347 73.1822 52.9484 73.4917 52.6694C73.4917 53.0919 72.7774 53.4665 72.5631 53.9368C72.2138 53.8651 72.0948 53.5622 71.9757 53.2593C72.2456 53.3709 72.2694 53.6339 72.5948 53.5861L72.5631 53.5144ZM70.9121 50.4533C71.174 50.3736 71.1661 50.5809 71.3328 50.6208C70.9439 50.7642 71.0153 50.9954 71.1661 51.4179C70.8089 51.4179 70.8645 51.0432 70.6581 50.9157C70.7295 50.7244 70.8565 50.6287 70.9121 50.4533ZM70.2295 51.2983C70.5152 51.4437 70.7678 51.6469 70.9713 51.8953C71.1749 52.1436 71.325 52.4316 71.4121 52.7411C70.9597 52.4063 69.8961 51.8962 70.2295 51.2983ZM68.0388 55.7942C68.0388 54.8057 67.6102 55.1405 68.0388 55.7942ZM68.5468 57.0616C68.5071 56.7486 68.5341 56.4307 68.6261 56.129C68.9674 56.3442 68.6579 56.8145 68.5309 57.0616H68.5468ZM68.4594 53.8731C68.5229 53.6658 69.2532 53.5542 69.2532 53.9608C68.9436 53.9209 68.8007 53.7854 68.4594 53.8412V53.8731ZM68.8801 53.076C69.15 53.0042 69.142 53.2114 69.3008 53.2513C69.2373 53.4426 68.7849 53.331 68.8801 53.076ZM69.3008 55.1086C69.6738 55.2043 69.9596 54.9492 70.1501 55.1086C70.0602 55.3208 69.9457 55.5215 69.8088 55.7065C69.5548 55.5949 69.2611 55.5232 69.3246 55.1086H69.3008ZM70.2295 56.3044C69.8485 55.6985 70.8486 55.2123 71.0788 54.7101C70.7851 53.6897 69.3802 53.3789 69.3881 52.3187C69.9041 52.7571 70.3168 53.2274 70.8248 53.7535C71.1343 54.0883 71.8963 54.2557 71.9201 54.5506C71.9598 54.9333 71.2137 55.1565 70.9914 55.3956C70.6263 55.7623 70.6898 56.1928 70.2295 56.3044ZM72.3408 57.9863C71.8011 57.9066 72.2852 57.3007 72.2614 56.9739C72.4519 57.1891 72.2932 57.6834 72.3408 57.9863ZM73.2694 58.8392C72.7297 58.632 73.2139 57.8508 73.1028 57.3088C73.3965 57.5798 73.2933 58.4965 73.2933 58.8472L73.2694 58.8392ZM73.6981 58.8392V57.8269C74.095 57.8269 74.1188 58.2493 74.1982 58.624C73.9838 58.624 73.9442 58.8392 73.6981 58.8472V58.8392ZM72.6821 56.0333C71.9836 56.2406 71.936 57.1015 71.0946 57.1413C71.4994 56.5036 72.0551 56.0174 72.444 55.3558H72.6107C72.8667 55.475 73.0916 55.6523 73.2679 55.8736C73.4442 56.0949 73.567 56.3542 73.6266 56.6312C73.9679 57.1174 74.7458 57.5797 74.722 58.1616C73.9283 57.5638 73.4917 56.6232 72.6821 56.0413V56.0333ZM73.2933 54.7977C73.5408 54.2266 73.9946 53.7709 74.5632 53.5223C74.4918 54.1043 73.9521 54.2158 73.8886 54.7977C74.4045 55.5949 75.476 56.392 75.6586 57.2609C74.5156 56.7508 74.087 55.5391 73.2933 54.7977ZM76.1666 56.7507C75.9285 56.6471 75.6665 56.5754 75.6586 56.2406C76.0158 56.1927 76.1269 56.3841 76.4523 56.408C76.373 56.5594 76.1666 56.5514 76.1428 56.7268L76.1666 56.7507ZM75.8332 55.1565C75.6031 55.4036 75.3173 54.997 75.0395 54.9891C75.2618 54.7101 75.484 55.1804 75.8094 55.1086L75.8332 55.1565ZM75.4919 54.5666C75.2538 54.5188 75.0554 54.439 74.8172 54.3992V54.1441C75.0871 53.881 75.4681 54.168 75.4681 54.5188L75.4919 54.5666Z" fill="white"/>
</svg>
