<svg width="41" height="41" viewBox="0 0 41 41" fill="none" xmlns="http://www.w3.org/2000/svg">
<g opacity="0.6">
<path d="M37.2447 28.3175L37.2587 33.3174C37.2618 33.7816 37.168 34.2413 36.9833 34.6671C36.7985 35.0929 36.5268 35.4755 36.1857 35.7902C35.8445 36.105 35.4414 36.345 35.0021 36.4949C34.5628 36.6448 34.097 36.7014 33.6346 36.6609C28.5045 36.1179 23.5732 34.3791 19.2371 31.5843C15.203 29.0366 11.7794 25.6319 9.20931 21.6121C6.38052 17.272 4.61386 12.3265 4.05245 7.17641C4.00952 6.71564 4.063 6.25098 4.20949 5.81201C4.35597 5.37304 4.59226 4.96938 4.9033 4.62674C5.21434 4.28409 5.59332 4.00996 6.01611 3.8218C6.43889 3.63365 6.89623 3.53559 7.35899 3.53386L12.359 3.51995C13.1678 3.50973 13.9527 3.79398 14.5675 4.31969C15.1822 4.84541 15.5848 5.57672 15.7003 6.37733C15.9158 7.97684 16.3115 9.54685 16.88 11.0574C17.1059 11.6533 17.1562 12.3015 17.025 12.9251C16.8938 13.5488 16.5866 14.1217 16.1398 14.5761L14.029 16.6987C16.4132 20.8646 19.8776 24.3098 24.0568 26.6708L26.1675 24.5483C26.6194 24.0989 27.1907 23.7885 27.8136 23.6538C28.4365 23.5192 29.085 23.5659 29.6821 23.7885C31.1958 24.3485 32.768 24.7355 34.3687 24.9421C35.1786 25.0541 35.9191 25.4598 36.4494 26.0821C36.9797 26.7045 37.2628 27.5 37.2447 28.3175Z" stroke="black" stroke-width="4" stroke-linecap="round" stroke-linejoin="round"/>
</g>
</svg>
