<svg width="64" height="64" viewBox="0 0 64 64" fill="none" xmlns="http://www.w3.org/2000/svg">
<g opacity="0.6">
<path d="M62.5914 36.6038L57.5331 30.7048C56.308 29.2761 54.526 28.4566 52.6439 28.4566H34.6124L28.1626 22.5231C27.8165 22.2047 27.3634 22.0279 26.8932 22.0279H18.342C17.663 22.0279 17.0373 22.3949 16.7058 22.9874C16.3743 23.5799 16.3889 24.3052 16.7442 24.8838L18.9377 28.4566H14.0641L9.09881 18.8244C8.77719 18.2006 8.13421 17.8086 7.43224 17.8086H1.87493C0.839471 17.8086 0 18.6481 0 19.6835V32.4691C0 40.0351 6.15541 46.1905 13.7213 46.1905H58.1835C60.4788 46.1905 62.5003 44.895 63.4591 42.8096C64.418 40.7242 64.0856 38.3462 62.5914 36.6038ZM54.6866 33.1458L56.9748 35.8143H54.4662C52.1013 35.8143 50.0815 34.3091 49.314 32.2066H52.6439C53.4302 32.2066 54.1747 32.5488 54.6866 33.1458ZM26.162 25.7779L35.5588 34.4225H27.0007L21.6932 25.7779H26.162ZM3.74987 21.5586H6.28928L9.84528 28.4567H3.74987V21.5586ZM60.0523 41.243C59.7074 41.9929 59.0088 42.4406 58.1835 42.4406H13.7213C8.22309 42.4406 3.74987 37.9674 3.74987 32.4692V32.2066H12.9212H21.24L24.3539 37.2785C24.695 37.834 25.3 38.1725 25.9517 38.1725H40.3661C41.1387 38.1725 41.8322 37.6985 42.1129 36.9788C42.3936 36.2591 42.2041 35.4407 41.6355 34.9177L38.6885 32.2067H45.4254C46.2942 36.4017 50.0176 39.5643 54.4662 39.5643H59.8023C59.892 39.5643 59.9796 39.5558 60.0661 39.5436C60.3108 40.0751 60.3114 40.6793 60.0523 41.243Z" fill="black"/>
</g>
</svg>
