<svg width="32" height="24" viewBox="0 0 32 24" fill="none" xmlns="http://www.w3.org/2000/svg">
<g clip-path="url(#clip0_5_34)">
<path d="M31.9876 2.76562L28.5746 7.16516L29.878 10.9367L31.9876 2.76562Z" fill="url(#paint0_linear_5_34)"/>
<path d="M32 2.76172L27.2676 5.72009L23.6113 4.07471L32 2.76172Z" fill="url(#paint1_linear_5_34)"/>
<path d="M6.74142 21.8505C8.76363 23.2531 11.1714 24.0038 13.6378 24.0006C20.3101 24.0006 25.7192 18.6284 25.7192 12.0003C25.7183 11.2644 25.6496 10.5301 25.5142 9.80664C22.1648 14.2816 14.0379 23.7988 6.74142 21.8505Z" fill="url(#paint2_linear_5_34)"/>
<path d="M25.0273 7.99509C24.1934 5.65681 22.6506 3.63261 20.611 2.20091C18.5715 0.7692 16.1355 0.000313362 13.6381 0C6.96584 0 1.55739 5.37217 1.55739 11.9997C1.5565 12.9115 1.66007 13.8205 1.8661 14.7091C0.951104 14.8483 -0.00154877 13.9247 -0.00154877 13.9247C0.57268 14.9985 1.42037 15.904 2.45694 16.5507L2.46928 16.582C2.87109 16.8213 3.29168 17.028 3.72694 17.2002C4.29312 17.4305 4.88419 17.5951 5.48839 17.6908C9.65833 18.4083 15.8984 16.5433 25.0273 7.99509Z" fill="url(#paint3_radial_5_34)"/>
</g>
<defs>
<linearGradient id="paint0_linear_5_34" x1="28.5746" y1="6.85118" x2="31.9876" y2="6.85118" gradientUnits="userSpaceOnUse">
<stop/>
<stop offset="0.71"/>
<stop offset="0.99"/>
</linearGradient>
<linearGradient id="paint1_linear_5_34" x1="23.6113" y1="4.24091" x2="32" y2="4.24091" gradientUnits="userSpaceOnUse">
<stop/>
<stop offset="0.65"/>
<stop offset="0.99"/>
</linearGradient>
<linearGradient id="paint2_linear_5_34" x1="6.74142" y1="16.9033" x2="25.7192" y2="16.9033" gradientUnits="userSpaceOnUse">
<stop offset="0.01"/>
<stop offset="0.57"/>
<stop offset="1"/>
</linearGradient>
<radialGradient id="paint3_radial_5_34" cx="0" cy="0" r="1" gradientUnits="userSpaceOnUse" gradientTransform="translate(3.7961 9.2762) scale(22.663 22.511)">
<stop offset="0.01"/>
<stop offset="0.35"/>
<stop offset="1"/>
</radialGradient>
<clipPath id="clip0_5_34">
<rect width="32" height="24" fill="white"/>
</clipPath>
</defs>
</svg>
