<svg width="48" height="36" viewBox="0 0 48 36" fill="none" xmlns="http://www.w3.org/2000/svg">
<g clip-path="url(#clip0_5_829)">
<path d="M47.9813 4.15039L42.8618 10.7497L44.8168 16.407L47.9813 4.15039Z" fill="white"/>
<path d="M48 4.14258L40.9014 8.58014L35.417 6.11207L48 4.14258Z" fill="white"/>
<path d="M10.1123 32.7747C13.1456 34.8787 16.7572 36.0047 20.4569 35.9999C30.4653 35.9999 38.5789 27.9416 38.5789 17.9994C38.5776 16.8956 38.4746 15.7942 38.2714 14.709C33.2473 21.4214 21.057 35.6972 10.1123 32.7747Z" fill="white"/>
<path d="M37.5409 11.9926C36.29 8.48522 33.9757 5.44892 30.9165 3.30136C27.8572 1.1538 24.2032 0.000470044 20.4571 0C10.4486 0 2.33597 8.05825 2.33597 17.9995C2.33463 19.3673 2.48998 20.7308 2.79902 22.0636C1.42654 22.2724 -0.00244141 20.8871 -0.00244141 20.8871C0.858902 22.4978 2.13043 23.856 3.68529 24.8261L3.70381 24.873C4.30652 25.2319 4.9374 25.542 5.59029 25.8002C6.43956 26.1457 7.32616 26.3927 8.23247 26.5361C14.4874 27.6124 23.8475 24.815 37.5409 11.9926Z" fill="white"/>
</g>
<defs>
<clipPath id="clip0_5_829">
<rect width="48" height="36" fill="white"/>
</clipPath>
</defs>
</svg>
